<?xml version="1.0" encoding="UTF-8"?><svg id="uuid-a01cbbe2-705a-40a1-bbe1-9bc4fc1352c8" xmlns="http://www.w3.org/2000/svg" viewBox="0 0 843.1 177.5"><defs><style>.uuid-3f150e14-44c2-4f04-9065-ff6e0d6ae3d7{fill:#f0dfd0;}.uuid-6c4dcd20-4d3d-4b90-a109-8a35eb58f508{fill:#e9bd9e;}.uuid-2afb541a-451e-424e-ae0d-eb449a2da1c5{fill:#fefefe;}.uuid-89fd7e99-ba35-45f7-adf8-d4dca26daeb4{fill:#edccaf;}.uuid-e2c334c3-c209-4dcc-ad32-fd580b2f006f{fill:#e5cbb9;}.uuid-9ade552c-000c-4a03-9200-68eadab648a5{fill:#7f3e19;}.uuid-fdc1ad2b-63b0-4bbe-a5c4-eb99e4767348{fill:#9a4c1f;}.uuid-680db6bf-deab-4f40-b914-105aaf6c736b{fill:#7d3d18;}.uuid-632ac66c-6e52-4b7c-b606-4acc649c8548{fill:#994b1f;}.uuid-02555fb1-a797-48ca-b9ac-444f5fe4aac1{fill:#8c451c;}.uuid-f67af774-775c-493b-a0e2-88203bed3a6b{fill:#a04f21;}.uuid-32a709ac-67b7-4324-ae0a-39f8253fc3bf{fill:#85411a;}.uuid-007a2db9-4083-4390-bc4f-fa1733a47983{fill:#b75a26;}.uuid-311cad4d-9123-4efb-9df3-102bc54174b0{fill:#9e4e20;}.uuid-5f6daa1e-1ff6-498e-bdc5-61a6c09213ac{fill:#a25021;}.uuid-aa57881e-64af-4997-9241-2490b43cef87{fill:#c36029;}.uuid-357f38f6-8127-4a4d-addf-76868fcf994f{fill:#90471d;}.uuid-ba9606b8-cef2-41ab-b98b-ad891909379a{fill:#bb5c27;}.uuid-2c84ad6c-7028-446c-b556-5ed5d161cab0{fill:#a95322;}.uuid-bfb49316-6cb5-499c-9325-5bf1a6eb2162{fill:#c15f28;}.uuid-e3dd0c13-1509-4e1b-9d61-507de5a560c0{fill:#ab5423;}.uuid-0318c576-466c-403f-b064-c68f5a83f87e{fill:#a75222;}.uuid-a19af91f-b99e-4c6c-8ec8-789d43ea767a{fill:#af5624;}.uuid-a4209813-ac34-443c-a09e-0cd6a9b21833{fill:#b45825;}.uuid-be6255e2-c9ab-46b2-a022-de096f15ea5e{fill:#b15725;}.uuid-2807c823-5cc5-4094-86ab-ab54023bb2f5{fill:#a55122;}.uuid-b3bfc22a-4abc-4ab8-bb56-76b1d39f4806{fill:#bd5d27;}.uuid-1d4a5536-addb-4ab7-a277-e8cc75709c81{fill:#bf5e28;}.uuid-ff618b5d-e73a-4e2e-b4eb-2171c4aebd42{fill:#cd642b;}.uuid-5ced1d18-2034-4350-b845-e5f48b53ad5c{fill:#c8622a;}.uuid-e09636b6-bcee-4ec6-be84-b7d2a6fc6d2b{fill:#df9b6d;}.uuid-ae63d742-7f91-4203-824a-fc39d52a4a13{fill:#c7622a;}.uuid-067445e4-d6a4-4c88-afbd-5a877d16e976{fill:#c56129;}.uuid-e7b16568-328f-4301-92e4-5daf5df56f44{fill:#ad5524;}.uuid-d430b3f1-77a2-4a97-a74b-56c6bdabbf4a{fill:#d3a686;}.uuid-431df12e-7e85-432b-b959-fcd6d597e5cd{fill:#d57a43;}.uuid-ac045771-a68b-48a7-b6b1-6803508b3fc3{fill:#ac5424;}.uuid-025fadb9-0528-47db-8cd1-ce42505709a2{fill:#95491e;}.uuid-178709df-2fe9-485b-b1ad-25bc05858ee8{fill:#813f19;}.uuid-84ccbb72-6780-4baa-b5a9-d0d58d920946{fill:#9c4d20;}.uuid-4a3221d9-496a-41f1-971a-e08fb98919f6{fill:#723816;}.uuid-f2e4143d-dc38-4a81-9532-136e880be46b{fill:#a35021;}.uuid-752a1835-2bbb-42d0-9567-b0726b54a4d9{fill:#8a441b;}.uuid-e498d393-fbb0-47c3-9978-238333628aec{fill:#88431b;}.uuid-464b6ea5-a69c-4ccf-8042-3064b8484828{fill:#6e3615;}.uuid-09c9541f-c013-46f6-9a99-7d7819cb7753{fill:#763a17;}.uuid-faffa117-9ab5-4a2d-b9f2-4818f38b437c{fill:#7a3c18;}.uuid-41d3e95c-30d8-4482-86c8-bfdc63c790a2{fill:#733916;}.uuid-fd69c8ab-7261-4530-8750-b92bee742132{fill:#783b17;}.uuid-311efec3-0d03-4d87-a0fe-c790795c744c{fill:#83411a;}</style></defs><g><path class="uuid-89fd7e99-ba35-45f7-adf8-d4dca26daeb4" d="M163,138.2c.5-.9,0-1.7-.2-2.6-1.4-6.6-2.5-13.2-3.6-19.8-.7-4.4-1.3-8.8-1.9-13.3-.4-3.1-.5-6.2-.8-9.3-.5-4.4-.4-8.9-.4-13.3,0-2,.3-4,.6-6,0-.6,.5-.8,.9-1.1,6.5-4,12.9-8.1,19.2-12.3,5.6-3.7,11.1-7.4,16.7-11.2,8.4-5.7,16.7-11.5,25-17.2,3.4-2.4,6.9-4.8,10.3-7.2,.3-.2,.5-.5,.8-.4,.1,.2,0,.4,0,.5,0,0-.1,.1-.2,.2-.5,.4-1,.9-1.4,1.4-3.4,3.1-6.8,6.2-10.2,9.3-2.2,2-4.4,3.9-6.6,5.9-.7,.6-1.4,1.2-2.1,1.9-1.5,1.2-2.8,2.5-4.3,3.7-1.9,1.6-3.8,3.3-5.6,4.9-1.8,1.5-3.5,3-5.2,4.5-.7,.6-1.4,1.2-2.1,1.8-.9,.7-1.8,1.5-2.7,2.3-2.6,2.2-5.1,4.4-7.7,6.6-1.3,1.1-2.6,2.2-3.9,3.2-2.9,2.6-5.9,5-8.9,7.4-1,.8-1.1,1.7-1.2,2.7-.5,4.4-1.2,8.8-1.6,13.2-.3,3.7-.7,7.4-1,11.1-.2,3.2-.4,6.3-.6,9.5-.2,3.9-.2,7.9-.4,11.8-.2,3.8,0,7.6-.1,11.3,0,.4,0,.8-.3,1.1-.5,0-.5-.4-.4-.8Z"/><path class="uuid-02555fb1-a797-48ca-b9ac-444f5fe4aac1" d="M77.4,86.2c-1.8,1.6-3.7,3.2-5.6,4.6-.2-.4,.1-.6,.3-.9,.3-.7,.8-1.4,.2-2.2-.1-.2-.1-.4,0-.7,.5-.9,.2-1.8,.2-2.7,0-.6-.2-1.2,.1-1.8,0,0,0-.2,0-.3-.6-1.4,.2-2.9-.2-4.3-.1-.4,0-.8,0-1.2,0-.1,.2-.3,0-.5-.6-1.5,.3-3-.2-4.5-.1-.4,0-.8,0-1.1,0-.2,.2-.4,.1-.6-.7-1.6,.5-3.3-.2-4.9,.6-1.2-.4-2.5,.2-3.7,.2-.5,0-1.1,0-1.7-.1-.5-.2-1,0-1.5,0-.1,.1-.3,0-.4-.7-1.5,0-3,0-4.5-.2-1.4-.5-2.8,0-4.2,.1-.4,.1-.9,0-1.2-.4-1.2,.2-2.4-.3-3.5,.6-1.5,0-3.1,.3-4.7,0,0,0-.2,0-.3-.7-1.5,.3-3.1-.1-4.7-.1-.3,0-.7,.1-1,0-.2,.2-.5,.1-.6-.7-1.5,0-3.1-.2-4.6-.2-2.1,0-4.3,0-6.4,0-.7,.3-1.4-.2-2.1,0-.1,0-.3,0-.4,.6-1.1,.4-2.2,.1-3.3,0-.3,0-.6,0-.9,0-.2,.2-.5,.1-.7-.7-1.6,.4-3.2-.2-4.9-.2-.6,0-1.5,.7-2,2.7,0,5.3,0,8,0,.4,.2,.4,.6,.3,.9-.3,1.2,0,2.4,0,3.6,0,.6,0,1.3,0,1.9-.4,2,.2,4.1,0,6.1-.2,1.6,0,3.3,.2,4.9,0,.3,0,.5,0,.8-.3,1.8-.3,3.6,0,5.3,0,.1,0,.3,0,.4-.4,2,0,4,0,6,0,2.8,.3,5.5,0,8.2-.1,1.2,0,2.5,0,3.7,0,.5-.1,1-.2,1.4-.3,1.4,0,2.8,0,4.2,0,.5,0,1.1,0,1.6-.3,1.5,0,3,0,4.5,0,.6,0,1.2,0,1.7-.2,1.2-.1,2.4,0,3.6,.2,2-.3,4,0,6,.4,2.1-.3,4.2,0,6.3,0,.6,.3,1.3,.2,2-.1,1.4-1.1,2.3-2.1,3-.7,.5-1.5,1.1-2.1,1.8Z"/><path class="uuid-357f38f6-8127-4a4d-addf-76868fcf994f" d="M77.4,86.2c.7-1.2,1.9-1.7,2.9-2.6,.7-.6,1.1-2.3,1-3.2-.2-1.1-.4-2.3-.2-3.5,.3-1.6,.2-3.3,0-4.9-.1-1,0-1.9,0-2.8,0-1.1,0-2.2-.1-3.3,0-.5,0-1,0-1.5,.3-1.4,.2-2.9,0-4.3,0-.6-.1-1.2,0-1.7,.3-1.5,.3-3.1,0-4.6-.1-.7,0-1.4,.2-2.1,.4-2.2-.2-4.3,0-6.4,.2-2-.1-3.9,0-5.9,0-1.7,0-3.3-.2-4.9,0-.4,0-.9,.2-1.3,.2-1.5,0-3-.2-4.4,0-.6,0-1.1,.2-1.7,.2-1.6,0-3.1-.2-4.7,0-1.3,.2-2.6,.1-3.9-.1-1.7,0-3.3,0-4.9,0-.8,0-1.7-.2-2.6-.3-.9,.2-1.8,.1-2.8,.3-.3,.7-.2,1-.2,1.8,0,3.6,0,5.5,0,.8,0,1.6,0,2.4,0,.3,.2,.3,.5,.3,.7,0,.5,0,.9,.3,1.3,.1,.2,.2,.5,.1,.7-.4,1.4,0,2.9-.4,4.3,0,.1,0,.3,0,.4,.6,1.9,0,3.9,0,5.8,0,0,0,.2,0,.3,.7,1.9,0,3.9,0,5.8,0,0,0,.1,0,.2,.8,1.8,0,3.6,0,5.4,0,.1,0,.3,0,.4,.5,1.9,0,3.8-.2,5.6,0,0,0,.2,0,.3,.7,1.9,0,3.9,0,5.8,0,.1,0,.3,0,.4,.6,1.9,.2,3.8,0,5.7,0,.1,0,.3,0,.4,.6,2.2,.3,4.4,.2,6.6,0,0,0,0,0,0,.4,.9,.3,1.8,.2,2.8,0,.6,0,1.3,0,2,0,.9-.2,1.7,.2,2.6,.3,.7-.2,1.6-.2,2.4,0,.7,0,1.5-.2,2.2,0,.2,0,.4,0,.6,.7,1.7,0,3.3,0,5-.2,.5-.7,.7-1,1-1.8,1.4-3.7,2.7-5.5,4.2-2.1,1.8-4.3,3.5-6.6,5.2Z"/><path class="uuid-007a2db9-4083-4390-bc4f-fa1733a47983" d="M177.1,144.4c-3,2.1-6.2,3.6-9.5,5.1-10.5,4.7-21.4,6.8-32.9,6.3-2.4,0-4.7-.2-7.1-.6,0,0,.2-.2,.3-.2,.3-.1,.7,0,1,0,1.2,.2,2.4,.2,3.6,.4,.5,0,1,0,1.5,0,.9,0,1.8,0,2.7,.2,.4,0,.9,0,1.3,0,.1,0,.2,0,.3,0,1-.3,2.1-.1,3.1-.1,.5,0,1.1,0,1.6-.1,.9,0,1.8-.1,2.7-.2,.9-.1,1.7-.2,2.6-.3,1.6-.2,3.1-.5,4.7-.8,2.3-.5,4.6-1.1,6.9-1.9,2.9-.8,5.8-2,8.5-3.3,.4-.2,.6-.4,.6-.9,0-1.9,.2-3.9,0-5.8-.2-1.2,.1-2.5,.2-3.7,0-.8,.1-1.6-.1-2.4-.1-.4-.2-.8,0-1.2,.6-1.6,.3-3.1,0-4.6,0-.4-.2-.8,0-1.2,.5-1.6,.2-3.2,0-4.9,0-.4-.1-.8,0-1.2,.5-1.8,.3-3.5,0-5.2,0-.3,0-.6,0-1,.5-1.7,.3-3.4,0-5.1,0-.5,0-1,0-1.4,.3-1.4,.3-2.7,0-4.1-.1-.7-.1-1.4,0-2.1,.2-1,.3-2,.2-3.1-.2-2.2,0-4.4-.1-6.5-.2-1.9,0-3.8,.1-5.7,0-.3,0-.6,0-.9-.4-1.1-.2-2.1,.1-3.2,.2-.8,0-1.7-.2-2.6-.3-1.2,0-2.4-.2-3.5,.7-.9,1.7-1.6,2.5-2.3,1.8-1.5,3.6-3,5.4-4.5,.3-.3,.6-.7,1-.5,.4,.2,.3,.7,.3,1.1,0,1,0,2,.1,3.1,0,.9,0,1.8,0,2.8-.2,1.2,0,2.4,.1,3.5,0,.7,.1,1.4,0,2-.3,1.4,0,2.7,.2,4.1,0,.9,.2,1.8,0,2.8-.3,1,0,2.2,0,3.2,0,1.1,.1,2.2,0,3.3,0,.9,0,1.8,0,2.7,0,2.3-.3,4.5,0,6.8,.2,1.5-.2,3.1,0,4.6,.2,2.3-.2,4.7,0,7,.2,1.8-.2,3.6,0,5.4,.2,2.5-.2,5.1,0,7.7,0,.5,.1,1,0,1.4-.4,1.4,.2,2.7,.2,4.1,0,1,.3,1.9-.2,2.8-.1,.3,0,.6,0,.9,.3,1,0,1.9,0,2.9,0,.8-.8,.8-1.2,1.3Z"/><path class="uuid-ba9606b8-cef2-41ab-b98b-ad891909379a" d="M177.1,144.4c1.4-1.3,1.1-3,.8-4.6,0-.2,0-.4,0-.6,.7-1,0-2,.2-2.9,.1-1.2-.6-2.3-.2-3.5,.2-.6,.1-1.3,0-2,0-1.2-.4-2.4-.2-3.5,.2-1.4,.3-2.9,0-4.2-.2-1.8,.2-3.6,0-5.4-.1-1.1-.2-2.3,0-3.5,.2-1.4,0-2.8,0-4.3,0-.8,.1-1.5,.1-2.3,0-1.3-.2-2.7-.1-4,0-1.7,0-3.4,.3-5.1,0-.2,0-.5,0-.8-.2-.6-.2-1.3,0-1.9,0-.2,0-.4,0-.6-.3-1.6,0-3.2-.2-4.7,0-.2,0-.4,0-.5,.7-1,0-2.1,.1-3.1,0-1.1-.5-2.2-.2-3.3,.2-.7,.1-1.4,0-2.1,0-1,0-2-.2-3,0-1.1,.3-2.1,.2-3.1-.1-1.4-.3-2.8,0-4.1,0-.1,0-.3-.1-.4-.2-.2-.4,0-.5,.1-.8,.6-1.6,1.3-2.4,1.9-2,1.7-4,3.4-6,5-1.7,1.5-1.3,3.7-1.7,5.5-.1,.3-.1,.7-.1,1,0,.6-.2,1.2-.3,1.8-.1,.4-.1,.8-.1,1.2,0,.1,0,.3,0,.4-.1,.4-.1,.8-.1,1.1,0,.2,0,.4,0,.6-.1,.3-.1,.7-.1,1,0,.2,0,.4,0,.6-.1,.4-.1,.8-.1,1.2,0,.3,0,.6,0,.9-.1,.3-.1,.7-.1,1,0,.2,0,.4,0,.6-.1,.4-.1,.8-.1,1.2,0,.3,0,.5,0,.8-.2,.4-.1,.9-.1,1.3,0,.3,0,.5,0,.8-.1,.4-.1,.8-.1,1.2,0,.4,0,.8,0,1.3-.1,.4-.1,.8-.1,1.2,0,.4,0,.7,0,1.1-.2,.5-.1,.9-.1,1.4,0,.4,0,.9,0,1.3-.1,.4-.1,.8-.1,1.3,0,.5,0,1.1,0,1.6-.2,.5-.1,1.1-.1,1.6,0,.6,0,1.2,0,1.8-.2,.6-.1,1.2-.1,1.8,0,.7,0,1.5,0,2.2-.2,.7-.1,1.4-.1,2,0,1,0,2,0,3-.3,1.2-.1,2.4-.1,3.5,0,4.1,0,8.1,0,12.2,0,.5,0,1.1-.4,1.5-.1,.1-.3,.3-.5,0,0,0,0-.2,0-.3,.4-.3,.2-.6,.2-1-.1-5.6,0-11.3,.2-16.9,.2-7.4,.7-14.7,1.3-22.1,.6-6.4,1.4-12.8,2.3-19.2,0-.5,.3-1,.7-1.3,3.1-2.6,6.2-5.1,9.2-7.7,.1,0,.3-.2,.4-.2,1.4-1,2.5-2.1,3.9-3.1,.8-.6,1.4-1.4,2.3-1.8,.7,.7,.5,1.7,.5,2.5,.1,1.6,0,3.2,0,4.8-.1,1.5,.3,3,.2,4.5-.3,2.6,.3,5.1,0,7.6-.1,.8,0,1.8,.2,2.7,.1,.5,.1,1.1,0,1.6-.3,1.6-.1,3.2,0,4.8,0,.5,0,1,0,1.4-.3,1.5,0,2.9,0,4.4,0,.2,0,.4,0,.7-.3,1.8-.2,3.7-.1,5.5,0,1.2,0,2.3-.2,3.4-.2,.8,.2,1.7,.2,2.6,0,1.2,.1,2.4-.2,3.5-.2,.8,.2,1.6,.2,2.5,0,1.2,.1,2.5-.2,3.7-.2,.7,.1,1.5,.2,2.3,.1,1.9-.1,3.8,0,5.7,.2,2.5-.2,5,.2,7.4,.1,.8,.1,1.6-.6,2.2-2.2,1.9-4.5,3.5-6.9,5Z"/><path class="uuid-025fadb9-0528-47db-8cd1-ce42505709a2" d="M96.5,143.5c-6.2-4.2-11.7-9.2-16.5-15-2.2-2.6-4.2-5.4-6.1-8.3-.2-.2-.3-.5-.4-.8,0,0,.2,0,.3,0,.9,.8,1.4,1.9,2.1,2.8,1.6,2.2,3.3,4.5,5.1,6.6,2.4,2.8,5,5.4,7.8,7.9,.7,.6,1.1,.5,1.1-.4,0-1.5,.3-3.1,0-4.6-.2-1.3,.2-2.5,.4-3.8,0-.2,.2-.5,0-.7-.7-1.2-.2-2.4-.2-3.6,0-.7-.2-1.5,.2-2.2,0,0,0-.2,0-.3-.9-1.6,0-3.3-.2-4.9,0-.7,.1-1.5-.2-2.3-.1-.4,0-.8,0-1.1,.1-.8,.3-1.6,0-2.5,0-.2,0-.5,0-.7,.3-.6,.3-1.1,0-1.7,0-.1-.1-.3-.1-.5,.3-1.5-.1-3.1,.2-4.6,0-.2,0-.4,0-.6-.7-1.8-.2-3.6-.1-5.5,0-.2,.2-.4,0-.5-.2-.2-.5,0-.7,.1-2,1.1-4.1,2.2-6.1,3.3-.7,.4-1.5,.9-2.3,1.3-.7,.4-1.4,.8-2.1,1.2-.3,.2-.6,.4-1,.3-.1,0-.2-.1-.1-.3,.2-.6,.8-.7,1.3-1,6.2-3.6,12.5-7.1,18.8-10.3,1.1-.6,2.1-1.2,3.2-1.7,.4-.2,.8-.5,1.2-.3,.4,.3,.3,.8,.2,1.3-.6,3.1-1.2,6.1-1.7,9.2-1.1,6.5-2,13.1-2.6,19.7-.5,5.3-.9,10.5-1,15.8,0,2.7-.1,5.4-.3,8.2,0,.2,0,.4-.3,.4Z"/><path class="uuid-a4209813-ac34-443c-a09e-0cd6a9b21833" d="M166.5,88.1v-.4c.2-.4,0-.8,.2-1.2,0-.7,0-1.3,.2-1.9,.2-.3,0-.7,.2-1,.2-1.3,.3-2.6,.5-4,.1-.9,.8-1.2,1.5-1.6,.4,0,.5,.4,.4,.6-.4,1.3,0,2.6,.2,3.9,.1,1,0,1.8-.3,2.7-.2,.4-.2,.9,0,1.3,.1,.2,.2,.4,.2,.6,0,1.6,0,3.2-.3,4.7-.2,.7,.4,1.3,.3,2-.1,1.2,0,2.4-.1,3.7,0,1.2,.3,2.3,.2,3.4,0,.9,0,1.7-.2,2.6-.2,1,.1,1.9,.2,2.9,0,.8,.2,1.5,0,2.3-.4,1.3-.2,2.6,0,3.8,.1,.9,.2,1.8,0,2.7-.5,1.7,.3,3.3,.2,5,0,.2,0,.3,0,.5-.8,1.9,0,3.8,0,5.8,0,.3,0,.5,0,.8-.2,1-.3,1.9-.1,3,.2,1.2,.6,2.6,0,3.8-.3,.5-.4,1.2,0,1.7,.1,.1,.1,.4,0,.6-.1,1.6,0,3.2-.3,4.7-.2,.7,.2,1.2,.2,1.9,0,1.5-.1,3.1,0,4.6,0,.4,0,.7-.5,.9-2.8,1.3-5.6,2.5-8.6,3.4-.1,0-.3,0-.4,0-.1-.1-.1-.3,0-.4,.6-2.2,.3-4.5,.1-6.7,0-.2,0-.5,0-.7,.3-.7,.1-1.2-.2-1.8-.3-.5-.3-1,0-1.6,.1-.3,.1-.6,.1-.8,0-1.5,.4-3,.3-4.5,0-.9,0-1.8-.4-2.6-2.6-5.9-4.7-11.8-6.9-17.8-1.6-5-3.2-9.9-4.6-14.9-.8-3.2-1.7-6.3-2.4-9.5-.7-3.2-1.4-6.4-1.9-9.7-.3-1.6-.5-3.2-.7-4.8,0-.3,0-.6-.1-.9-.5-4.7-.7-9.4-.1-14.1,0-.4,0-.9,.5-1.2,.4,0,.7,0,.8,.4,0,.1,0,.2-.1,.3-.4-.4-.6-.3-.7,.3-.3,2.5-.5,5-.4,7.6,.4,12.4,3.3,24.3,6.8,36.1,3,10.2,6.6,20.2,11,29.9,.4,.8,.8,1.6,1.2,2.4,.3,.4,.5,.9,.7,1.4,0,0,0,0,0,0,0,.2,.2,.5,.2,.7,0,.1,0,.4,.2,.2,.4-.2,.3-.6,.3-.9,0-1.8-.1-3.6,0-5.4,0-2.5,0-4.9,0-7.4,.3-1.1,0-2.3,.2-3.5,0-1,0-2.1,0-3.1,.3-.6,0-1.3,.2-1.9,0-.8,0-1.5,0-2.3,.3-.6,0-1.2,.2-1.7,0-.6,0-1.3,0-1.9,.3-.5,0-1,.2-1.5v-1.7c.2-.4,0-.8,.2-1.2,0-.4,0-.9,0-1.3,.3-.4,0-.9,.2-1.3,0-.4,0-.8,0-1.2,.2-.4,0-.8,.2-1.2,0-.4,0-.9,0-1.3,.2-.4,0-.8,.2-1.2,0-.3,0-.5,0-.8,.3-.4,0-.9,.2-1.3,0-.3,0-.5,0-.8,.2-.4,0-.8,.2-1.2,0-.2,0-.4,0-.6,.2-.3,0-.7,.2-1,0-.3,0-.6,0-1,.2-.4,0-.8,.2-1.2,0-.2,0-.4,0-.6,.2-.3,0-.7,.2-1,0-.2,0-.4,0-.6,.2-.4,0-.8,.2-1.2Z"/><path class="uuid-752a1835-2bbb-42d0-9567-b0726b54a4d9" d="M73,8.1c-.5,1.3-.1,2.7,0,4,0,.3,0,.5-.1,.7-.2,.5-.6,.9,0,1.4,.2,.1,.2,.6,0,.8-.4,.6-.2,1.3,0,1.9,.2,.8,.2,1.6-.2,2.4,0,.1-.2,.4-.1,.4,.9,1.4-.1,3.1,.4,4.5,0,.2,0,.4,0,.6-.2,.6-.5,1.1,0,1.6,.1,.1,.1,.5,0,.6-.5,1.1-.2,2.2,0,3.4,0,.3,0,.6-.2,.9-.2,.4-.2,.8,.2,1.1,.2,.2,.3,.4,.1,.7-.6,1.1-.2,2.3-.2,3.5,0,.2,0,.4,0,.6-.3,.6-.6,1.3,0,1.9,0,0,0,.3,0,.4-.6,.8-.2,1.7-.2,2.6,0,.6,.1,1.2-.2,1.8,0,0-.1,.2,0,.3,.5,.9,0,2,.2,2.9,.2,1,.3,2-.1,3,0,.1-.2,.4,0,.5,.8,1.5,.1,3.1,.4,4.6,.2,.8,.1,1.9,0,2.7-.2,1.2,.2,2.2,.1,3.4,0,.3,0,.6-.2,.8-.2,.4-.5,.8,0,1.3,.3,.2,.2,.7,0,.9-.4,.7-.2,1.4,0,2,.2,.8,.2,1.5-.2,2.2-.1,.2-.3,.4-.1,.6,.7,.6,.3,1.2,.2,1.9-.1,.8,0,1.6,.2,2.4,0,.2,0,.4,0,.6-.3,.6-.5,1.2,0,1.8,0,.1,0,.4,0,.6-.5,1.1-.2,2.2,0,3.4,0,.3,0,.6-.2,.9-.2,.4-.3,.8,.1,1.1,.2,.1,.3,.4,.2,.6-.7,1.2-.1,2.4-.1,3.6,0,.3,0,.6-.2,.8-.3,.5-.2,.8,0,1.3,.5,.8-.2,1.4-.5,2.1,0,.3-.4,.4-.5,.7-2.1,1.8-4.1,3.6-6.2,5.3-.2,0-.3,0-.2-.3,.2-.5,.6-.8,1-1.1,1.2-.9,1.5-2.1,1.2-3.5,0-.2-.1-.5,0-.7,.3-.9,0-1.7,.1-2.6,.2-2.7,0-5.4,.2-8,0-1.1,0-2.3,0-3.4,0-.8,0-1.5,0-2.3,0-1.7,0-3.4,0-5,0-2.6,.1-5.2,0-7.7-.1-2.5,0-5-.2-7.5,0-1.4-.3-2.8,0-4.2,0-.2,0-.4,0-.7-.2-2,0-4.1,0-6.1,0-2,.2-4.1,0-6.1,0-2,.2-4,.1-6,0-1.5,0-2.9,0-4.4,0-2.6,0-5.3,0-7.9,0-2.1,0-4.2,0-6.3,0-.9-.2-1.8,0-2.8,.1-.8-.3-1.1-1.2-1.2-.8,0-1.7,.2-2.5-.3,0-.1,0-.2,.2-.3,1.4,0,2.7,0,4.1,0,1.1,.2,2.2,0,3.4,0,.4,0,.8-.1,1.1,.2Z"/><path class="uuid-b3bfc22a-4abc-4ab8-bb56-76b1d39f4806" d="M184,139.4c.3-.5,.5-1,.4-1.5-.2-1.1,0-2.3-.3-3.4-.1-.4,.1-.9,.1-1.4,0-1.6,0-3.1-.1-4.7,0-.9,.2-1.8,.1-2.7,0-1.1,.1-2.2-.3-3.3-.2-.5,.4-1,.3-1.7,0-1,0-2-.2-3.1-.3-1.6,.3-3.2,.1-4.8-.1-.9,.2-1.9-.3-2.8,0,0,0-.3,0-.4,.6-1.3,.3-2.7,.3-4.1,0-1.7,0-3.4,.2-5.2,0-.8,.2-1.7-.2-2.5-.3-.6,0-1.3,.1-1.9,0-.9,0-1.8,0-2.7,0-1.1-.3-2.3,0-3.4,.3-.9,0-1.8,0-2.7,0-1.6-.3-3.2,0-4.7,.2-.8-.1-1.5-.2-2.2-.2-1.1,.2-2,.1-3-.1-1.4,0-2.7-.3-4.1-.2-.8,.4-1.7,.3-2.6-.1-1.2,.2-2.4-.3-3.5,0-.2,0-.4,.1-.6,0-.3,0-.6-.3-.6,.6-1,1.6-1.5,2.4-2.2,.6-.6,1.3-1.1,2-1.7,.2-.2,.3-.4,.6-.3,.3,.1,.4,.4,.4,.7,0,0,0,0,0,0-.5,1.8,.3,3.7,0,5.5-.4,2.3,.2,4.7,0,7-.2,2.3,.4,4.6-.2,7-.2,.9,.3,1.9,.3,2.8,0,.2,0,.3,0,.5-.6,2.4,.2,4.8-.1,7.2-.3,2.1,.4,4.2,0,6.3-.4,2.1,.4,4.2,0,6.2-.3,1.5,0,3.1,0,4.6,0,.2,0,.3,0,.5-.6,2.3,.1,4.7-.1,7-.2,2.2,.2,4.3,0,6.4-.2,2.5,.4,5.1-.3,7.6,0,.3,0,.6,0,.9,.3,1,.3,2,.1,3-.1,.4-.4,.6-.7,.8-1.1,1.1-2.3,2-3.4,3.1-.3,.3-.6,.6-1,.8Z"/><path class="uuid-311cad4d-9123-4efb-9df3-102bc54174b0" d="M116.4,157c-.9,2-1.9,4-3.1,6-.3-.3,0-.7,0-1,.3-.7,.6-1.3,1-2,.6-1.1,.5-2.1,.3-3.3-.1-.9-.2-1.9,0-2.9,.1-1.2,.4-2.4,.1-3.7-.2-.8,0-1.6,.1-2.5,0-1.2,0-2.4,0-3.5-.1-.9,0-1.8,0-2.7,0-1.2,.2-2.4-.1-3.5-.2-.7,0-1.4,0-2.1,.3-1.7-.2-3.4-.2-5.1,0-.8,0-1.6,0-2.3,.3-1.2,0-2.6-.2-3.7-.3-1.1,0-2,.2-2.9,.1-.6,.2-1.2-.4-1.6,.1-1.7,.6-3.2,.9-4.8,.8-3.8,1.8-7.7,2.8-11.5,0-.3,0-.6,.3-.8,.4-2.3,1.2-4.5,1.8-6.8,.3-1,.4-2.1,1.1-2.9,.4,.1,.5,.5,.5,.8-.3,2.8,.2,5.5,0,8.3,0,1,0,2.1,0,3.2,.2,1.3,0,2.7-.2,4,0,.7-.1,1.5,0,2.2,0,.2,.2,.5,0,.8-.8,1.8-.2,3.6,0,5.4,0,.2,0,.4,0,.6-.7,1.9-.1,3.8,0,5.8,0,.7,0,1.4,0,2.1,0,1.2-.1,2.4,0,3.7,0,.2,0,.4,0,.6-.1,2.2,0,4.5,0,6.7,0,3.2,0,6.4,0,9.6,0,1.8,0,3.6,0,5.5,0,.4,0,.8-.2,1.2-.2,.2-.5,.1-.8,.1-.8-.2-1.6-.7-2.5-.5-.7,1.1-1.2,2.3-1.8,3.5Z"/><path class="uuid-89fd7e99-ba35-45f7-adf8-d4dca26daeb4" d="M96.5,143.5c.4-.3,.2-.6,.2-1-.1-17.7,1.9-35.1,5.5-52.4,0-.3,.2-.6,0-.9-.3,0-.6,.2-.8,.3-7.8,4-15.6,8.2-23.2,12.6-.2,.1-.4,.3-.5,.4-.1,.3-.5,.4-.7,.6-2.3,1.4-4.6,2.7-6.8,4.2-.6,.3-1.1,.7-1.6,1-.1,0-.3,0-.4,0,1.3-1.2,2.6-2.5,4-3.7,4.8-4.1,9.9-7.7,15.1-11.2,6.2-4.1,12.6-7.9,19.1-11.5,1.3-.7,2.6-1.4,4.1-2.2,0,.8-.3,1.3-.5,1.8-3.2,8.8-5.8,17.8-8,26.9-1.6,6.7-2.9,13.4-3.8,20.1-.6,4.4-1.2,8.9-1.2,13.4,0,.5,0,1.1-.1,1.6,0,.2-.1,.5-.4,.2Z"/><path class="uuid-007a2db9-4083-4390-bc4f-fa1733a47983" d="M177.7,44.6c-2.8,1.8-5.8,3.4-8.8,5-5.7,3-11.6,5.8-17.4,8.7-.7,.4-1.1,.8-1.2,1.6-.2,1-.3,2.1-.8,3.1,0,0-.2-.1-.2-.2,0-1.4,.4-2.7,.8-4,.2-.4,.5-.6,.9-.8,2.4-1.2,4.7-2.4,7.1-3.5,1.9-.8,3.7-1.8,5.5-2.7,1.4-.7,2.8-1.5,4.3-2.1,1.2-.5,1.6-1.4,1.6-2.5,0-1.2,.2-2.5-.2-3.7,0-.3,0-.6,0-.9,.4-1.3,.4-2.5,.2-3.8-.3-2.6,.4-5.1-.3-7.7,0-.2,0-.3,0-.5,.6-1.9,.3-3.9,0-5.8,0-.2,0-.5,0-.7,.6-1.8,.2-3.5,0-5.3-.2-1.1,.3-2.1,.8-3,.4-.2,.7,.1,1,.3,.8,.4,1.7,.8,2.4,1.3,1.6,.9,3.3,1.8,4.8,2.9,.4,.6,.4,1.3,.4,2,0,1.1,0,2.2,0,3.4,0,.6,0,1.2,0,1.7,.1,.7,0,1.3,0,2-.2,1.2,0,2.5,0,3.7,0,.8,.2,1.6-.1,2.4,0,.2-.1,.4,0,.6,.3,.8,0,1.7,.2,2.4,.4,1.6,0,3.3,0,4.9,0,.7-.6,1-1,1.5Z"/><path class="uuid-311efec3-0d03-4d87-a0fe-c790795c744c" d="M55.5,150.8c-1.9,1.7-3.8,3.5-5.7,5.2-3.2,2.9-6.5,5.9-9.7,8.8-.5,.5-.8,.5-1.3,0-2.4-2.7-4.9-5.3-7.3-7.9-.2-.2-.4-.5-.6-.7,0,0,.1-.1,.2,0,.5,.2,.7,.6,1.1,.9,1.7,1.7,3.3,3.6,5,5.4,.5,.6,1.1,1.1,1.6,1.6,.4,.5,.8,.6,1.3,0,.8-.7,1.6-1.5,2.4-2.2,1.9-1.7,3.8-3.5,5.7-5.2,1.4-1.3,2.9-2.6,4.3-3.9,.7-.7,1-1.6,1-2.6,0-1.5-.2-3-.1-4.5,.2-2.1,0-4.3,0-6.4,0-2,0-3.9,0-5.8,0-.6,.1-1.3,.1-1.9,0-1.2-.1-2.4-.4-3.6-.2-1,0-2,.2-3.1,0-.7,.2-1.4,0-2.1-.4-1.3-.2-2.5,0-3.8,0-.3,.1-.5,.4-.6,.8,0,1.1,.6,1.5,1.1,.9,.9,.9,.9,1.9,.2,1-.6,1.9-1.3,2.8-2,.3-.2,.6-.5,1-.5,.4,0,.9,0,.9,.5,0,1.1,.4,2.2,0,3.3-.4,1.3-1.5,1.8-2.4,2.6-.1,.4,0,.6,.3,.8,.2,.2,.4,.4,.5,.5q1.6,1.6,1.6,3.8c0,1.2,0,2.5,0,3.7,0,1.4,0,2.9,0,4.3,0,.5,0,1,0,1.5,.2,1-.2,2.1,0,3.1,.1,1-.2,2,0,3.1,0,.5-.2,.8-.5,1.1-1.8,1.8-3.8,3.4-5.6,5.2,0,0-.1,.1-.2,.2Z"/><path class="uuid-ba9606b8-cef2-41ab-b98b-ad891909379a" d="M177.7,44.6c1-1.9,1-3.9,.6-5.9,0-.4-.3-.9,0-1.4,.2-.2,0-.5-.1-.7-.3-.4-.4-1-.2-1.3,.7-1,0-2.1,.1-3.1,.1-1.2-.5-2.5,.2-3.7,.2-.3,0-.6,0-.9-.2-.9,0-1.8,0-2.7-.1-1.6,.3-3.2-.3-4.8,1.4,.5,2.5,1.6,3.7,2.5,1.7,1.3,3.3,2.7,5,4.1,.9,.8,1.3,1.7,1.2,2.9,0,1.5,0,3.1,0,4.6,0,1.2-.3,2.3,0,3.5,.1,.7-.6,.9-1,1.3-3,2.1-6.1,4-9.3,5.8Z"/><path class="uuid-84ccbb72-6780-4baa-b5a9-d0d58d920946" d="M114.4,120.3c.6,0,.8,.2,.7,.8-.2,.7,0,1.5-.6,2.2,0,.1-.1,.4,0,.5,.6,.6,.8,1.2,.3,1.9,.8,1.3,.3,2.7,0,4.1,0,0,0,.1,0,.2,.7,1.5,.3,3,.5,4.6,.1,.9,.2,2-.2,2.9-.2,.5,.3,.8,.3,1.3-.1,1.1,0,2.2-.1,3.2-.1,1.3,.1,2.6,.1,3.9,0,1.3-.1,2.6-.2,3.9,0,.9,.2,1.8,0,2.8,0,.5,0,1-.2,1.4-.1,.3-.2,.6,.1,.9,.1,.1,.3,.4,.2,.5-1,.9,.3,1.9,0,2.9-.2,.5-.2,1.1-.4,1.7-.4,1-1.1,1.9-1.3,3-1,2.2-2.1,4.3-3.3,6.4-.4-.4,0-.7,.1-1.1,.5-1,.9-2,1.4-3,.1-.2,.2-.4,0-.6,0-.2-.2-.4,0-.6,.4-.6,.3-1.2-.2-1.7-.3-.3,0-.7,.1-1.1,.1-.2,.4-.5,.2-.8-.7-1.1-.2-2.1,0-3.1,0-.4,0-.6-.2-.9-.4-.4-.4-.9-.1-1.4,.3-.4,.3-.8,0-1.2-.3-.3-.2-.6,0-1,.3-.7,.6-1.5,.4-2.1-.3-.9-.6-1.6,0-2.4-.8-1.1,.4-2.2,.2-3.3,0-.4,0-.7-.3-1-.5-.5-.5-.9-.1-1.5,0-.1,.3-.3,.2-.4-.5-1,0-1.8,.2-2.7,.2-.8-.3-1.3-.9-1.7,.2-2.1,.6-4.2,1-6.3,.7-3.6,1.3-7.1,2.1-10.7,0-.2,0-.4,.3-.6Z"/><path class="uuid-5ced1d18-2034-4350-b845-e5f48b53ad5c" d="M199,52.2c1.9-1.9,4-3.6,6-5.4,1.3-1.1,2.5-2.3,3.8-3.3,1.9-1.6,3.7-3.3,5.6-4.9,.5-.5,1-1,1.6-1.4,.5-.4,1-.4,1.4-.1,.4,.3,.3,.8,.2,1.1-.2,.7-.3,1.5-.2,2.2,.2,1.5-.3,2.8-1.2,3.9-.2,.2-.3,.5-.4,.8-1.8,3-3.6,6-5.4,9-.7,1.2-1.3,2.4-2,3.6-.4,.6-.4,1.2-.2,1.8,2.3,7.4,3.5,14.9,3.4,22.7,0,11.1-2.6,21.6-7.3,31.6-.1,.3-.3,.5-.5,.8,0,0-.1-.1-.2-.2,.1-1.1,.8-2.1,1.2-3.1,1.3-3.1,2.4-6.2,3.3-9.4,1.1-3.8,2-7.7,2.4-11.7,.1-1.2,0-2.5-.2-3.8,0-.2-.1-.3,0-.5,.5-1.2,0-2.5,.1-3.7,0-.3,0-.6,.2-.9,.2-.4,.2-.6,0-1-.3-.5-.3-1,0-1.4,.3-.3,.3-.7,0-1-.3-.4-.3-.8-.3-1.3,.3-5-.8-9.8-2.1-14.5-.1-.5-.2-.9-.4-1.4-.5-1.2-.8-2.4,0-3.7,.3-.5,.3-1.1,.3-1.7-.1-1.6,.2-3.2,0-4.9-.2-1.3,0-2.6,.1-3.9,0-.2,.1-.5,0-.8,0-.3,0-.7-.4-.8-.3-.1-.5,.2-.7,.4-1.4,1.2-2.7,2.4-4.2,3.6-1.1,1.1-2.3,2-3.4,3-.2,.2-.5,.5-.8,.2Z"/><path class="uuid-fdc1ad2b-63b0-4bbe-a5c4-eb99e4767348" d="M111.2,138c.7,0,1.1,0,1,1,0,.7,0,1.3-.5,1.8-.1,.2-.2,.3,0,.5,.6,.6,.4,1.1-.1,1.6-.2,.2-.3,.5,0,.7,.9,.5,.8,1.6,.6,2.2-.3,.9-.7,1.6-.1,2.5,0,0,0,.2-.2,.3-.5,.5-.7,1,0,1.5,.2,.1,.3,.4,.2,.6-.6,.7,0,1.6-.6,2.3-.2,.2,0,.5,.2,.7,.5,.4,.5,.8,0,1.3-.4,.5-.6,.9,0,1.4,.2,.2,.5,.5,.3,.8-.6,.6-.1,1.5-.6,2.1-.2,.2,0,.5,.2,.7,.5,.4,.5,.8,.1,1.3-.5,.5-.5,1,.2,1.4,0,0,.2,.2,.2,.2-.3,.9,0,1.8-.3,2.6-.4,1.3-1.4,2.5-1.7,3.9-1.2,2.3-2.3,4.6-3.5,6.9,0,.1-.2,.2-.3,.2-.6,0-.3-.5-.3-.8,.3-2.8,.6-5.7,.9-8.5,.3-2.9,.7-5.8,1.1-8.6,.3-2.5,.7-4.9,1-7.4,.4-2.8,.8-5.7,1.3-8.5,.2-1.4,.5-2.7,.6-4.1,0-.2,0-.4,.3-.6Z"/><path class="uuid-e498d393-fbb0-47c3-9978-238333628aec" d="M55.5,150.8c0-.4,.4-.6,.6-.8,1.7-1.5,3.3-3.1,5-4.6,.5-.4,.7-.9,.4-1.4-.3-.6,0-1.3,0-1.9,.1-1.1-.5-2.1,.1-3.2,.1-.2,0-.4,0-.6-.5-1,0-2.1-.2-3.2-.3-1.3,.5-2.5,0-3.7-.3-.6,0-1.2,.1-1.8,0-1-.3-1.9,0-2.9,.1-.4,0-.6-.3-.8-.5-.5-1.1-1-1.6-1.6-.2-.3-.7-.5-.4-1,0,0,.2,0,.3,0-.2,.5,.3,.7,.5,1,3.7,3.7,7.4,7.3,11.1,11,.5,.5,.6,.8,0,1.3-5.1,4.6-10.2,9.3-15.3,13.9-.1,.1-.3,.2-.4,.3Z"/><path class="uuid-0318c576-466c-403f-b064-c68f5a83f87e" d="M124.4,83.3c1-3.4,2.4-6.6,3.7-9.9,1.8-4.6,3.8-9.2,5.9-13.7,.1-.3,.3-.5,.3-1-3,.8-4.6,3.1-5.9,5.9-.6-1.2-.9-2.4-1.1-3.5-.2-1.3-.5-2.7-.6-4,0-.8-.3-.8-1-.6-4.1,1.4-8,3.2-11.8,5.2-.4,.2-.8,.3-1.1,.5,0,0,0-.2,0-.3,.6-.7,1.5-.9,2.3-1.3,1.4-.7,2.8-1.4,4.3-2.1,1.5-.7,3.1-1.3,4.7-1.9,.6-.2,1.2-.5,1.8-.7,.9-.3,1.2,0,1.3,.8,.3,2,.5,4,1.1,5.9,0,.2,0,.4,.2,.5,.8-1.4,1.7-2.8,3-3.8,.6-.4,.3-1.1,.3-1.7-.1-1.2,0-2.3,.2-3.4,.4-.3,.7,0,1,.1,.5,.2,1.1,.6,1.6,.7,1.2,.6,2.6,.6,3.8,1.2,.3,.4,.4,.9,.4,1.4,0,1.5,.3,3,0,4.5-.2,.7,0,1.4,.2,2.1,0,.6,0,1.1-.5,1.4-.3,0-.4-.3-.7-.3-.1,.2-.1,.4-.2,.6-.7,4.3-1.5,8.5-2.3,12.8-.2,1.3-.4,2.5-.8,3.7-.6,0-.7,0-.7-.7,0-2,0-4.1,0-6.1,0-1.2-.2-2.5,0-3.7,.2-1.7,0-3.4,0-5.2,0-1.5,0-3-.1-4.6-1.6,3.3-3.1,6.7-4.4,10.1-1.4,3.2-2.6,6.5-3.8,9.8-.2,.4-.2,.9-.6,1.2-.1,0-.2,0-.3,0Z"/><path class="uuid-e498d393-fbb0-47c3-9978-238333628aec" d="M59.6,123.4c0,0-.2,0-.3,0,.9-.8,2-1.4,2.3-2.7,.3-1.1,0-2.1,0-3.1,0-.6-.7-.4-1.1,0-1.3,.9-2.6,1.8-3.8,2.7-.5,.4-.8,.3-1.1,0-.6-.6-1.2-1.1-1.8-1.7-1.5-1.2-2.9-2.4-4-4,0,0,0-.2,.1-.2,.5,0,.7,.3,1,.6,1.5,1.5,3,3,4.5,4.5,.5,.5,.9,.6,1.5,.1,1.3-1,2.7-1.9,4.1-2.9,.8-.6,.8-.7,.1-1.3-2.7-2.6-5.1-5.4-7.8-8-.9-.9-.9-.9-2-.2-.3,.2-.5,.4-.9,.3,0,0,0-.2,0-.3,.3-.5,.8-.8,1.2-1.2,.5-.4,1-.4,1.4,0,.8,.8,1.6,1.6,2.4,2.3,1.9,2,3.9,3.8,5.7,5.9,.2,.3,.5,.5,.8,.7,.4,.3,.5,0,.6-.3,0-.3,0-.5-.1-.8,0-.9-.3-1.8,0-2.7,.2-.6,0-1.1-.4-1.6-1.4-1.6-2.8-3.1-4.2-4.6-.3-.3-.8-.6-.5-1.2,1.9,2,3.8,3.9,5.6,5.9,2,2.1,4,4.2,6,6.2,.3,.3,.7,.5,.1,.9-3.2,2.1-6.3,4.4-9.4,6.7Z"/><path class="uuid-178709df-2fe9-485b-b1ad-25bc05858ee8" d="M55.3,108.3c-.7-.7-1.5-1.4-2.2-2.1-.5-.5-.9-.7-1.5-.1-.3,.3-.7,.6-1.1,.9-.6,.7-1.1,1.5-2.2,1.5-.4-.7-.4-1.4-.1-2.1,.3-1-.1-1.8-.2-2.7,0-.6-.5-.2-.7,0-1,.9-2,1.8-3,2.7-.4,.4-.7,.8-1.3,.8-.7-.1-1.1-.7-1.5-1.2-1.2-1.5-2.7-2.8-4-4.2-.4-.5-1-.8-1.2-1.5,0,0,0-.2,.1-.2,2,2,4,4,5.9,6,.5,.6,.8,.5,1.4,0,2.6-2.4,5.2-4.7,7.8-7.1,.6-.6,1-.7,1.6,0,.2,.4,.6,.7,.9,1,.3,.6,.9,1,1.3,1.5,.4,.5,.5,.9,.5,1.6,0,1.4-.4,2.9,.2,4.3,.2,.5,0,.9-.7,.8Z"/><path class="uuid-ff618b5d-e73a-4e2e-b4eb-2171c4aebd42" d="M215.8,45.2c0-.9,.9-1.6,1.2-2.5,0-.3,.2-.6,.2-.9,0-1.2-.2-2.4,.2-3.5,0-.3,.4-.7,0-.9-.4-.2-.9-.2-1.3,.2-1.1,1-2.2,2-3.4,3-1.1,1-2.2,1.9-3.3,2.9-.2,.1-.3,.2-.5,.2,2.2-2,4.5-4.1,6.7-6.1,3.3-3,6.5-5.9,9.8-8.9,.8-.7,1.6-1.4,2.4-2.1,.6-.4,1-.9,1.5-1.4h0c.3,0,.4,.1,.2,.4-4.3,6.2-8.9,12.3-12.9,18.7-.2,.3-.5,.7-.7,1Z"/><path class="uuid-32a709ac-67b7-4324-ae0a-39f8253fc3bf" d="M55.3,108.3c.5-.2,.7-.5,.4-1-.3-.5-.4-.9-.2-1.5,.2-1-.1-2.1,.1-3.2,0-.4-.3-.8-.6-1.1-.4-.4-1-.6-1-1.3,1.2,1.1,2.3,2.2,3.3,3.5,0,.5,.3,.7,.6,.9,1.5,1.5,2.9,3.1,4.4,4.7,.6,.6,.6,1.3,.4,1.9-.3,.9,0,1.7,0,2.6,0,.4,.2,.8,0,1.2-.2,.4-.4,.5-.8,.1-2-2.4-4.4-4.5-6.5-6.8Z"/><path class="uuid-1d4a5536-addb-4ab7-a277-e8cc75709c81" d="M186.9,38.8c.8-.7,.6-1.5,.7-2.5,.1-1.7,.1-3.4,0-5.1,0-1,.2-2.1,0-3.1-.2-.9-1-1.5-1.7-2-2.5-2.2-5.1-4.3-7.9-6.1-1.5-.9-3.1-1.8-4.6-2.7,0,0,0-.2,0-.2,2.8,1.4,5.4,3.1,7.9,4.9,4.4,3.3,8.5,7,12.2,11.2,.5,.5,.5,.8-.1,1.2-2.1,1.5-4.2,3.1-6.4,4.4Z"/><path class="uuid-ba9606b8-cef2-41ab-b98b-ad891909379a" d="M173.4,17.1c0,0,0,.2,0,.2-1.1-.6-2.2-1.2-3.3-1.7-1,0-1.8-.6-2.7-1-1.4-.6-2.8-1.2-4.2-1.7-1.7-.6-3.4-1.3-5.2-1.7-2.5-.7-5-1.4-7.7-1.8-3-.5-6-.9-9-1.1-.8,0-1.6,0-2.4,0-.4-.1-.8-.1-1.2-.1-2.5,0-5,0-7.6,0-3,0-5.9,0-8.9,0-6.6,0-13.2,0-19.8,0-3.5,0-6.9,0-10.4,0-1.1,0-2.2-.1-3.3-.1-6.1,0-12.2,0-18.2,0-.3,0-.7,0-1,0-1.4,0-2.8,0-4.2,0,0,0-.1,0-.2,0,.2-.3,.6-.2,.9-.2,24.1,0,48.2,0,72.3,0,12.5,0,24.2,2.9,35.2,8.8,.3,.2,.6,.4,.9,.6Z"/><path class="uuid-5f6daa1e-1ff6-498e-bdc5-61a6c09213ac" d="M111.2,138c-.3,1.8-.7,3.6-1,5.3-.6,3.8-1.2,7.6-1.7,11.4-.4,2.7-.7,5.4-1,8.1-.4,3.1-.8,6.2-1.1,9.3-.1,1.2-.2,2.5-.4,3.7,0,.2,0,.4,.2,.5,0,.4,0,.8-.6,1.2,.2-2.1,.4-4,.6-5.9,2-18.1,4.7-36.1,8.5-53.9,1-4.7,2.1-9.3,3.3-13.9,0-.2,.2-.5,.3-.7,0,0,.2,0,.2,0-1.2,3.8-2,7.6-2.9,11.5-.4,1.9-.8,3.8-1.2,5.7-.5,2.5-1,4.9-1.5,7.4-.6,3.2-1.2,6.4-1.7,9.7,0,.2,0,.4,0,.7Z"/><path class="uuid-0318c576-466c-403f-b064-c68f5a83f87e" d="M64.2,7.9c0,0,.1,0,.2,0,0,0,0,.1,0,.2,.4,.5,.3,1,.3,1.6,0,5.6,0,11.1,0,16.7,0,18.7,0,37.4,0,56.1,0,.4,0,.8,0,1.2,.2,3.8,.5,7.6,1,11.3,0,.3,0,.6-.2,.9,0,0,.1,.1,.2,.2-.5,.2-.4-.2-.4-.4-.4-3.2-.7-6.4-.9-9.6-.3-3.8-.3-7.6-.3-11.5,0-21.9,0-43.7,0-65.6,0-.4,0-.8,.1-1.2Z"/><path class="uuid-4a3221d9-496a-41f1-971a-e08fb98919f6" d="M10.1,133.8c-2.6-2.8-5.3-5.6-7.9-8.4-.6-.7-1.3-1.4-1.9-2-.3-.3-.5-.5,0-.9,1.6-1.4,3.1-2.9,4.9-4.2,0,0,.2,0,.3,0,.1,.5-.2,.6-.5,.8-1.2,1.1-2.4,2.1-3.6,3.2-.5,.5-.5,.8,0,1.3,2.9,3.1,5.8,6.3,8.7,9.3,.2,.2,.6,.4,.4,.9,0,0-.2,0-.2,0Z"/><path class="uuid-2807c823-5cc5-4094-86ab-ab54023bb2f5" d="M118.5,103.1c0,0-.2,0-.2,0,.9-3.8,2-7.6,3.2-11.3,.9-2.9,1.8-5.7,2.9-8.5,0,0,.2,0,.2,0,.2,.4,0,.8-.2,1.2-1,2.7-1.9,5.4-2.8,8.2-.1,.3-.1,.7-.5,.9-.9,3.2-2,6.4-2.7,9.6Z"/><path class="uuid-ae63d742-7f91-4203-824a-fc39d52a4a13" d="M203.9,114.5c0,0,0,.2,0,.3-.9,2.1-2.1,4-3.2,6-1.9,3-3.8,5.9-6.2,8.5,0,0-.1-.1-.1-.2,0,0,0-.2,0-.3,.4-.7,.9-1.2,1.3-1.8,.9-1,1.7-2.2,2.5-3.3,1.8-2.7,3.5-5.4,5-8.3,.1-.3,.3-.6,.5-.8,0,0,.2,0,.3,0Z"/><path class="uuid-9ade552c-000c-4a03-9200-68eadab648a5" d="M36.4,100.2c0,0,0,.2,0,.2-.5,0-.8-.4-1-.7-.7-.9-1.5-1.7-2.3-2.5,0,0-.2-.2-.3-.3-1.6-1.5-1-1.5-2.8,0-.9,.8-1.8,1.6-2.7,2.4-.8,.7-1.6,1.4-2.4,2.1-.3,.2-.5,.6-.9,.6,0,0-.2,0-.2-.1,2.5-2.2,5-4.4,7.4-6.7,.3-.2,.5-.2,.7,0,1.5,1.6,3.1,3.2,4.6,4.9Z"/><path class="uuid-357f38f6-8127-4a4d-addf-76868fcf994f" d="M68.2,108.1c.1,0,.2,0,.4,0,0,0,.1,.2,.1,.2-.1,.5,0,1,.3,1.5,1.1,2.6,2.4,5.2,3.9,7.6,.3,.7,1,1.2,1,2.1,0,0-.2,0-.2,0-2.2-3.3-4.1-6.8-5.4-10.6-.1-.3-.1-.6,0-.8Z"/><path class="uuid-faffa117-9ab5-4a2d-b9f2-4818f38b437c" d="M23.6,101.9c0,0,.2,0,.2,0,0,.7-.7,.8-1,1.2-.2,.3-.5,.5-.8,.8-1.6,1.3-3.1,2.7-4.6,4-.8,.4-1.2,1.3-2.1,1.5,0,0-.2,0-.2-.1,2.7-2.6,5.6-5.1,8.5-7.5Z"/><path class="uuid-84ccbb72-6780-4baa-b5a9-d0d58d920946" d="M104.2,66.9c-3,1.9-5.9,3.9-8.9,5.8,0,0,0-.2,0-.3,.3-.6,.8-.8,1.3-1.1,1.3-.9,2.5-1.8,3.9-2.6,.9-.6,1.8-1.1,2.7-1.7,.3-.2,.6-.5,1.1-.4,0,0,0,.2,0,.3Z"/><path class="uuid-be6255e2-c9ab-46b2-a022-de096f15ea5e" d="M149.5,62.7c0,0,0,.2,0,.2-.1,1.3-.8,2.3-1.4,3.4-.2,.4-.4,.5-.7,0-.1-.2-.1-.4-.3-.6-.7-1.9-1.9-3.5-2.9-5.2,0,0,0-.2,0-.2,.5,0,.7,.4,.9,.8,.8,1.1,1.5,2.3,2.1,3.5,.1,.3,.2,.7,.6,.9,.5-.6,.7-1.3,1-2.1,.1-.3,0-.8,.6-.9Z"/><path class="uuid-09c9541f-c013-46f6-9a99-7d7819cb7753" d="M5.3,118.3c0,0-.2,0-.3,0,2.2-2.1,4.4-4.1,6.8-6,0,0,.2,0,.3,0,.1,.6-.4,.6-.7,.9-1.8,1.7-3.6,3.2-5.4,4.8-.2,.2-.4,.4-.7,.3Z"/><path class="uuid-9ade552c-000c-4a03-9200-68eadab648a5" d="M31.2,156.1c0,0-.2,0-.3,0-1.8-1.8-3.6-3.6-5.2-5.6,0,0,.1-.1,.2,0,.6,.2,.9,.8,1.3,1.1,1.2,1.2,2.3,2.6,3.5,3.7,.2,.2,.5,.4,.4,.8Z"/><path class="uuid-41d3e95c-30d8-4482-86c8-bfdc63c790a2" d="M10.1,133.8c0,0,.2,0,.3,0,.5,.1,.7,.6,1.1,.9,1.3,1.3,2.4,2.7,3.7,3.9,.2,.2,.5,.4,.3,.8,0,0-.2,0-.2,0-1.8-1.8-3.6-3.6-5.2-5.6Z"/><path class="uuid-632ac66c-6e52-4b7c-b606-4acc649c8548" d="M95.4,72.5c0,0,0,.2,0,.2-1.9,1.5-3.9,2.9-6,4.2,0,0-.1-.2,0-.2,.3-.3,.6-.5,1-.8,1.1-1.2,2.5-1.9,3.8-2.9,.4-.3,.7-.7,1.2-.6Z"/><path class="uuid-025fadb9-0528-47db-8cd1-ce42505709a2" d="M89.4,76.7c0,0,0,.2,0,.2-1.7,1.4-3.5,2.8-5.4,4,.7-1.1,1.9-1.6,2.9-2.4,.8-.7,1.7-1.3,2.5-1.9Z"/><path class="uuid-f67af774-775c-493b-a0e2-88203bed3a6b" d="M110.2,63.5c-1.6,1-3.3,2-5,2.9,0,0,0-.2,0-.3,1-1,2.2-1.5,3.4-2.2,.5-.3,.9-.8,1.6-.7,0,0,0,.1,0,.2,0,0,0,0,0,0Z"/><path class="uuid-aa57881e-64af-4997-9241-2490b43cef87" d="M194.4,128.9c0,0,0,.2,0,.2-1,1.4-2.2,2.7-3.5,3.9,0,0-.1-.1-.1-.2,.6-1.2,1.8-2,2.5-3.1,.2-.4,.5-.9,1.1-.8Z"/><path class="uuid-a19af91f-b99e-4c6c-8ec8-789d43ea767a" d="M120.6,153.8c.3,0,.5,0,.8,0,1.6,0,3.1,.5,4.7,.7,.3,0,.7,0,.8,.5,0,0-.2,.1-.3,0-2.1-.2-4.1-.6-6.2-1.2,0-.1,.1-.1,.2,0Z"/><path class="uuid-1d4a5536-addb-4ab7-a277-e8cc75709c81" d="M185,138.6c.9-1.3,2.2-2.1,3.3-3.1,0,0,.1,.2,0,.3-1,1.1-2.1,2-3.3,2.9Z"/><path class="uuid-bfb49316-6cb5-499c-9325-5bf1a6eb2162" d="M188.3,135.7c0,0,0-.2,0-.3,.1-.3,.3-.5,.6-.6,.6-.8,1.1-1.7,2.1-2.1,0,0,0,.2,0,.3-.8,1-1.7,1.9-2.7,2.7Z"/><path class="uuid-fd69c8ab-7261-4530-8750-b92bee742132" d="M12.1,112.4c0,0-.2,0-.3,0,1-1.1,2.1-2,3.3-2.9,0,0,.2,0,.3,0,0,.6-.6,.9-1,1.2-.8,.6-1.3,1.5-2.3,1.7Z"/><path class="uuid-fd69c8ab-7261-4530-8750-b92bee742132" d="M20.5,145c-1-.9-1.9-1.8-2.7-2.9,0,0,.2-.1,.3,0,1,.7,1.8,1.6,2.6,2.5,.1,.1,.2,.3,0,.5,0,0-.2,0-.3,0Z"/><path class="uuid-680db6bf-deab-4f40-b914-105aaf6c736b" d="M26,150.5c0,0-.2,0-.3,0-1-.9-1.9-1.8-2.7-2.9,0,0,.2-.1,.2,0,1,.7,1.8,1.6,2.6,2.5,.1,.1,.2,.3,0,.4Z"/><path class="uuid-faffa117-9ab5-4a2d-b9f2-4818f38b437c" d="M23.3,147.6c0,0-.2,0-.3,0-.9-.8-1.8-1.7-2.5-2.7,0,0,.2,0,.3,0,.6,.2,.9,.7,1.3,1.1,.4,.6,1.2,.8,1.2,1.6Z"/><path class="uuid-09c9541f-c013-46f6-9a99-7d7819cb7753" d="M18.1,142c0,0-.2,0-.3,0-.9-.8-1.8-1.7-2.5-2.7,0,0,.2,0,.3,0,1,.6,1.8,1.5,2.6,2.4,0,0,0,.2,0,.3Z"/><path class="uuid-2807c823-5cc5-4094-86ab-ab54023bb2f5" d="M116.4,157c.3-1.3,1-2.4,1.7-3.5,0,0,0,0,0,.1,0,0,0,0,0,0-.5,1.2-1,2.3-1.7,3.3Z"/><path class="uuid-f2e4143d-dc38-4a81-9532-136e880be46b" d="M110.2,63.5c0,0,0-.2,0-.2,0,0,0,0,0-.1,.8-.5,1.4-1.2,2.5-1.2,0,0,0,.2,0,.2-.8,.6-1.6,1-2.5,1.4Z"/><path class="uuid-e3dd0c13-1509-4e1b-9d61-507de5a560c0" d="M118.1,153.6c0,0,0-.2,0-.2,.9-.4,1.7,.2,2.5,.4,0,0-.2,0-.2,0-.8,.1-1.5-.7-2.3-.2Z"/><path class="uuid-431df12e-7e85-432b-b959-fcd6d597e5cd" d="M229.5,25.4c0-.2,0-.3-.2-.4,0-.2,.1-.4,.2-.5,.1,0,.2-.1,.4-.2,.2,0,.4-.2,.4,.2-.3,.3-.5,.6-.8,1Z"/><path class="uuid-e2c334c3-c209-4dcc-ad32-fd580b2f006f" d="M147.2,65.7c.4,.1,.2,1.1,.9,.6,0,.3,0,.5-.4,.5-.2,0-.3-.2-.4-.4-.1-.2-.2-.5-.2-.7Z"/><path class="uuid-89fd7e99-ba35-45f7-adf8-d4dca26daeb4" d="M163,138.2c-.4-.4-.6-.8-.7-1.4,.4,.4,.7,.8,.7,1.4Z"/><path class="uuid-e09636b6-bcee-4ec6-be84-b7d2a6fc6d2b" d="M230.3,24.5c-.1,0-.3-.1-.4-.2,.2-.2,.4-.4,.6-.6,.3,0,.4,.1,.2,.4-.1,.1-.3,.3-.4,.4Z"/><path class="uuid-311cad4d-9123-4efb-9df3-102bc54174b0" d="M105.2,66.1c0,0,0,.2,0,.2-.3,.3-.6,.5-1,.6,0,0,0-.2,0-.2,.2-.4,.5-.6,1-.6Z"/><path class="uuid-a4209813-ac34-443c-a09e-0cd6a9b21833" d="M126.5,155c0,0,.2,0,.2,0,.4-.2,.9-.4,1.2,.2,0,0-.1,0-.2,0-.4,0-.8,0-1.2-.2Z"/><path class="uuid-6c4dcd20-4d3d-4b90-a109-8a35eb58f508" d="M230.6,24.1c0-.2,0-.3-.2-.4,.1-.1,.3-.5,.5-.2,.2,.2,0,.5-.3,.6Z"/><path class="uuid-1d4a5536-addb-4ab7-a277-e8cc75709c81" d="M191,132.8c-.8,.6-1.2,1.6-2.1,2.1,0-1.2,.2-2.4-.3-3.5-.1-.3,0-.8,.2-1.2,.4-1.6,.3-3.2,0-4.8-.1-.6,.4-1.1,.3-1.8-.1-1.4-.1-2.8-.4-4.1-.1-.7,.3-1.1,.3-1.7-.1-1.5,.2-3.1-.3-4.7-.2-.7,.1-1.6,.3-2.4,.2-.8,.2-1.7,0-2.4-.5-1.4,.1-2.6,.1-4,0-.8,.1-1.7-.1-2.4-.4-1.3,0-2.5,.1-3.7,0-.9,0-1.9-.1-2.7-.2-.9,0-1.7,0-2.5,0-1.5,.3-3.1-.3-4.6-.1-.3,0-.7,.1-1,.3-1.7,.4-3.3-.1-5-.2-.6,.3-1.2,.3-1.9,.1-.9,0-1.9,0-2.8-.2-2.5,0-5.1-.2-7.6-.1-1.4,.2-2.9,.2-4.4,0-.5,0-1-.3-1.4-.2-.4-.2-.7,0-1.1,.2-.3,.2-.7,.2-1,0-.2,0-.4-.2-.5-.2,0-.3,.1-.5,.2-1.5,1.3-3,2.6-4.5,3.8-.7,.6-1.4,1.2-2.1,1.7,0,0-.2,0-.2,0,2.5-2.3,5.1-4.5,7.7-6.6,1-.7,1.9-1.6,2.9-2.4,.3-.2,.5-.6,.9-.7,1.4,.1,1.7,.7,1.4,2-.2,.9-.3,1.9,0,2.8,0,.3,0,.5,0,.8,0,.2-.2,.5,0,.7,.6,1,.2,1.9,0,2.9-.2,1.3,0,2.7,.1,4,.1,.9,0,1.9-.1,2.8,0,1,0,2,0,3,0,1.2,0,2.3-.1,3.5,0,.7,0,1.5,0,2.1,.3,1.3-.2,2.5-.2,3.8,0,.9,0,1.9,0,2.8,0,.6,.2,1.2,0,1.9-.3,1.6-.2,3.3,0,4.9,0,.5,0,1-.1,1.4,0,1.6,0,3.2,.1,4.8,.1,.7,0,1.5-.1,2.2,0,.9,.2,1.7,0,2.6,0,.2,0,.4,.1,.6,.3,.5,.2,1,0,1.5-.3,1-.3,1.9,0,2.9,0,.2,0,.4,0,.7,0,.2-.2,.4-.1,.6,.9,1.4-.3,2.7,0,4,.2,1-.1,2.1,.2,3.1,.3,.9,0,1.8,0,2.7,0,1.1-.2,2.2,0,3.3,0,.3,0,.6,0,1-.2,.6-.1,1.2,.3,1.7,0,0,0,.1,0,.2-1.3,1.2-2.2,2.6-3.5,3.9Z"/><path class="uuid-aa57881e-64af-4997-9241-2490b43cef87" d="M192.7,58c-.3,.2-.5,.4-.8,.6,0,0-.2,0-.2,0,2.4-2.2,4.8-4.3,7.3-6.4,.9-.3,1.4-1.1,2.1-1.6,.7-.5,1.3-1.1,1.9-1.6,.3-.1,.6-.4,.9-.1,.3,.2,.3,.5,.2,.8-.7,1.6,0,3.3,0,4.9,0,.6,0,1.3-.1,1.9-.3,1.4,0,2.7,.1,4.1,0,.7,0,1.4-.1,2.1-.2,1.5,0,2.9,0,4.4,0,.3,.2,.5,.1,.8-.5,1.3-.3,2.7-.2,4,.3,2.6-.4,5.3,.2,7.9,0,.3,0,.7,0,1.1-.3,1.7-.2,3.4,0,5.1,0,0,0,.2,0,.3-.4,2.4,.2,4.8,0,7.2-.1,1.6-.1,3.2,0,4.8,0,.2,0,.3,0,.5-.7,1.8-.1,3.6,0,5.4,0,.3,0,.5,0,.8-.6,1.8-.1,3.6,0,5.4,0,.1,0,.3,0,.4-.4,1.3-.3,2.6-.5,3.9-.8,2.2-2.1,4.1-3.3,6.1-.7,1.1-1.3,2.2-2.1,3.2-.3-.3-.3-.6-.2-1,.2-.5,.3-1,.2-1.6,0-1.1,0-2.1-.4-3.1-.1-.3,0-.7,.1-1,.5-1.7,.6-3.3-.2-5,0-.2,0-.4,0-.7,.5-1.1,.5-2.3,.5-3.5,0-.4,0-.9-.2-1.2-.4-.9-.3-1.7,0-2.6,.3-1.2,.4-2.4,0-3.5-.3-.9-.3-1.8,0-2.6,.4-1.3,.4-2.5,0-3.8-.3-.8-.2-1.6,.1-2.4,.4-1.2,.4-2.4,0-3.5-.3-.9-.3-1.7,0-2.5,.4-1.3,.3-2.7,0-4-.1-.4-.2-.8,0-1.2,.4-1.1,.4-2.3,.4-3.5,0-.5,0-1-.3-1.4-.2-.4-.4-.9-.2-1.3,.5-1.1,.4-2.3,.4-3.5,0-.4,0-.8-.2-1.2-.3-.6-.3-1.2-.1-1.9,.5-1.6,.5-3.3-.2-4.9,0-.2-.1-.4,0-.7,.4-1.1,.6-2.2,.5-3.4,0-.4,0-.9-.1-1.2-.5-1-.4-2,0-3,0-.2,.2-.5,0-.7-.3-.2-.5,0-.7,.2-.7,.5-1.2,1.1-1.9,1.5-1,.7-1.8,1.8-3,2.3Z"/><path class="uuid-b3bfc22a-4abc-4ab8-bb56-76b1d39f4806" d="M181.3,67.5c0,0,.2,0,.2,0-1.3,1.1-2.4,2.3-3.9,3.1,1.1-1.1,2.4-2.1,3.7-3.1Z"/><path class="uuid-bfb49316-6cb5-499c-9325-5bf1a6eb2162" d="M191.7,58.6c0,0,.2,0,.2,0-1,.8-1.8,1.8-2.9,2.3,.8-.9,1.7-1.6,2.7-2.3Z"/><path class="uuid-431df12e-7e85-432b-b959-fcd6d597e5cd" d="M229.3,25.1c-.4,.6-.8,1.2-1.5,1.4,.4-.5,.9-1.1,1.5-1.4Z"/><path class="uuid-025fadb9-0528-47db-8cd1-ce42505709a2" d="M68.6,8c6.4,0,12.8,0,19.3,0,0,0,0,0,0,.1,0,0,0,0,0,0-2.2,0-4.4,0-6.6,0-2.8,0-5.5,0-8.3,0-1.2,0-2.3,0-3.5,0-.3,0-.6,.1-.9-.2Z"/><path class="uuid-025fadb9-0528-47db-8cd1-ce42505709a2" d="M95.4,72.5c-1.7,1.1-3.3,2.4-5,3.5-.1-.9,.3-1.8-.1-2.7,0-.1,.2-.3,.2-.5,0-.3,.4-.7,.2-.9-1.1-1.2,0-2.5-.3-3.8-.1-.7-.2-1.5,.3-2.1,0,0,0-.2,0-.2-1.2-1.1-.2-2.4-.3-3.6,0-.8-.4-1.7,.3-2.4,0,0,0-.1,0-.2-1.2-1.5,.2-3.3-.5-4.9,.7-1,0-2-.2-3,0-.4,0-.8,.2-1.2,.3-1-.4-2.1,.4-3.1,0,0-.1-.3-.2-.5-.3-.8-.5-1.5-.2-2.3,.2-.6-.2-1.4,0-1.9,.5-1.2,.1-2.2-.1-3.3,0,0,0,0,0,0,0-1,.3-2,.2-3.1,0-.7,.4-1.3,0-2.2-.4-.8,.2-1.8,.2-2.7,0-.8,0-1.5,.3-2.2,0,0,0-.3,0-.4-1.1-1.1-.2-2.3-.3-3.5,0-.7-.2-1.5,.3-2.2,0,0,0-.2,0-.3-1.1-1.3,0-2.7-.3-4-.1-.7-.2-1.3,.2-1.8,0,0,0-.2,0-.3-1.2-1.2,0-2.6-.2-3.9-.1-.8,0-1.4,.3-2.1,0,0,0-.3,0-.4-.7-.6-.5-1.4-.3-2.1,1.1-.2,2.3,0,3.4,0,1.9,0,3.9,0,5.8,0,.6,0,.8,.2,.8,.8-.1,1.2,.5,2.3,0,3.5-.1,.3,0,.6,.2,.8,0,.2,.3,.5,.2,.7-.6,1.4,.4,2.9-.3,4.3,0,.1,0,0,0,0,.4,1.2,.2,2.4,.2,3.6,0,.1,.1,.3,0,.4-.4,1.5-.1,3.1-.2,4.6,0,0,0,.2,0,.3,.4,1.4,0,2.9,0,4.3,0,1.6,.3,3.3,0,4.9,0,.3-.1,.5,0,.8,.3,.8,0,1.7,0,2.4,0,1.5-.2,2.9,0,4.4,0,0,0,.2,0,.3-.5,1.4,.1,2.9-.1,4.4,0,0,0,.1,0,.2,.5,1.5-.2,3,.2,4.4,0,.3,.1,.7,0,1-.2,.7-.2,1.3,0,2,0,.1,.1,.3,0,.5-.7,1.4,.2,2.9-.3,4.3,0,.1,0,0,0,0,.5,1.3,0,2.6,.3,3.9,0,.4,.2,.8,0,1.1-.4,.9-.3,1.8,0,2.7-1.8,1-3.4,2.4-5.2,3.5Z"/><path class="uuid-632ac66c-6e52-4b7c-b606-4acc649c8548" d="M100.6,69c-.5-.7-.9-1.4-.2-2.3,.3-.4,.2-1,0-1.4-.3-.6-.3-1.1,0-1.7,.3-.4,.1-.7,0-1.1-.4-.6-.5-1.2-.1-1.8,.1-.2,.2-.5,0-.7,0-.3-.2-.6-.2-.9,.4-1.5-.2-3.1,.2-4.7,0-.1,0-.3,0-.5-.2-1-.6-2,0-2.9,0,0,0,0,0,0-.8-1.3,.2-2.8-.3-4.2,0,0,0,0,0,0,.4-1.5-.2-3,.2-4.5,.1-.4,0-.8,0-1.2-.2-.7-.1-1.3,0-1.9,0,0,0-.1,0-.2-.5-1.4,.5-3-.2-4.4,0,0,0,0,0,0,.4-1.4,0-2.9,.2-4.4,.1-.5,.3-1,0-1.3-.5-.8,0-1.5,0-2.2-.2-1.4,.1-2.7,.1-4.1,0-.7-.3-1.4,.1-2.1,.1-.2,0-.4-.1-.6-.4-.7-.6-1.3,0-2,.3-.4,0-1,0-1.6,0-.2-.3-.5-.2-.6,1.1-1.3-.7-2.8,.2-4.2,.2-.3,0-.9-.2-1.3,0-.3-.2-.7,0-.9,.3-.8,0-.9-.7-.8-3,0-6,0-9,0-.8,0-1.7,0-2.5,0,0,0,0-.1,0-.2,4.6,0,9.1,0,13.7,0,2.2,.2,4.5,0,6.7,0,.6,0,1.2,0,1.8,0,.7,.8,.5,1.8,.4,2.7-.2,1.6-.1,3.3,0,4.9,0,.3,0,.6,0,.9-.2,1.3-.1,2.6,0,3.9,.1,2.7,0,5.4,0,8,0,3,0,5.9,0,8.9,0,2.5-.2,5.1,.2,7.7,.1,.7,0,1.4-.1,2-.3,1.9,0,3.7,0,5.6-.1,2.3,0,4.7,0,7,0,1.2,0,2.4-.3,3.6,0,0,0,0,0,0-1.7,1-3.3,1.9-5,2.9-.3,.2-.6,.4-1,.6-1.2,.8-2.4,1.5-3.7,2.3Z"/><path class="uuid-2c84ad6c-7028-446c-b556-5ed5d161cab0" d="M138,65.5c.6-.1,.6-.6,.6-1.1-.2-1.1-.1-2.1,0-3.2,.1-1.6,.2-3.3-.3-5,.2-.2,.4-.3,.7-.2,1.5,.4,3.1-.2,4.6,0,.2,0,.3,.2,.3,.3-.2,1.2,.3,2.4,0,3.6-.7,.6-.5,1.6-.5,2.3-.2,2.5-.4,5-.2,7.4,.1,1.8,.2,3.6,.3,5.5-.1,.3,0,.5,.2,.8,.2,1.6,.4,3.2,.6,4.8-1,1.1-.3,2.4-.1,3.6,.2,1.2,.2,2.2,0,3.4-.3,1-.2,2.2,.2,3.2,.3,.8,.2,1.7,0,2.5-.4,1.1-.3,2.2,0,3.2,.2,1.1,.3,2.1,0,3.2-.3,.9-.2,1.9,0,2.8,.3,1,.2,1.9,0,2.9-.3,1.4-.2,2.7,.1,4.1,.1,.7,0,1.4-.1,2-.5,1.8,0,3.5,0,5.2,0,.3,.2,.5,0,.8-.9,1.3-.1,2.5,0,3.8,0,1.1,.4,2.1-.3,3-.2,.3,0,.5,0,.8,.2,1.3,.4,2.6,.5,3.9,0,.2,0,.4,0,.6-.8,1.6-.2,3.1,0,4.6,0,.6,.2,1.3,0,1.9-.5,1.3-.3,2.5,0,3.8,.2,.8,.2,1.7,0,2.5-.4,1.1-.3,2.3,0,3.4,.2,1.1,.3,2.1-.1,3.1-.3,.9-.1,1.9,0,2.8,.1,.8,.1,1.5,.1,2.3,0,.6-.3,1-.9,1.2-.8,.4-1.6,.1-2.5,.2-.8,0-1.6-.1-2.4,.2-.4-.4-.5-.8-.4-1.3,.4-1.6,.2-3.3,0-4.9,0-.7,0-1.3,0-2,.2-1.1,0-2.3,0-3.4,0-1-.2-2-.1-3.1,0-1.2,.3-2.5,0-3.7-.2-.6,0-1.3,.1-1.9,.3-1,.2-2.2,0-3.1-.3-1.7,0-3.2,0-4.9,0-2.4-.2-4.8,0-7.1,0-.4,0-.7,0-1.1-.2-1.6,.3-3.1,0-4.7,0-.5,0-.9,0-1.4-.1-.9,0-1.8,0-2.7,0-1.2,.4-2.5-.3-3.7,.1-1.9,.6-3.8,.8-5.7,.2-1.7,.4-3.4,.5-5.1,.2-2.8,.2-5.5,.2-8.3,0-3.6-.4-7.1-.7-10.7-.2-2.6-.5-5.1-.6-7.7,0-.9-.3-1.7-.2-2.6,0-.3,0-.7,.3-1Z"/><path class="uuid-e7b16568-328f-4301-92e4-5daf5df56f44" d="M148.4,100c.8,1.8,1.1,3.8,1.8,5.7,.9,2.5,1.6,5.1,2.4,7.7,.2,.5,.3,1,.4,1.5,.6,1.6,.4,3.2,0,4.8-.2,.7,0,1.3,.1,1.9,.4,1.3,0,2.7,0,4,0,.7-.1,1.3,0,2,.4,1.3,0,2.7,0,4,0,1.1,0,2,.2,3,0,.4,.1,.8,0,1.2-.5,1.6-.4,3.2,0,4.8,0,.4,.2,.8,0,1.1-.6,1.2-.4,2.5-.2,3.7,.2,1.5,.1,2.9,0,4.4,0,.9,0,1.8,.1,2.8,.1,.5,.3,1,0,1.5-1.3,.2-2.5,.4-3.8,.7-.3,0-.7,0-1,.1-.4-.7-.2-1.6-.3-2.3-.1-.9-.2-1.9,0-2.9,.3-1.6,0-3.1,0-4.7,0-.6,0-1.3,0-1.9,.2-1.4-.2-2.9,0-4.3,0-.6,0-1.2,0-1.8,.2-1.5-.2-2.9,0-4.4,0-.6,0-1.1,0-1.7,.2-1.6-.2-3.1,0-4.7,0-.5,0-1,0-1.5,.2-1.5-.2-3-.1-4.6,0-.7,0-1.5,.1-2.2,.1-.6,0-1.2-.1-1.9-.3-1,0-2,0-3,.2-1.7,0-3.4,0-5.1,0-.5,0-1.1,0-1.6,.3-1.6-.1-3.1,0-4.7,0-.5-.1-1,.4-1.4Z"/><path class="uuid-a19af91f-b99e-4c6c-8ec8-789d43ea767a" d="M153.2,154c-.2-.8-.1-1.7-.5-2.5-.2-.4,0-.7,0-1,0-1.8,.3-3.5,0-5.3-.2-1-.5-2.3,.3-3.4,.2-.3,0-.7,0-1-.3-.8-.2-1.7-.3-2.5,0-1.8,.8-3.6,0-5.4,0-.2,0-.4,0-.6,.3-.6,.3-1.1,.1-1.8,0-.1,0-.3,0-.5,.6-1.1,.1-2.1,0-3.1,0-.3-.2-.5,0-.8,.2-.3,.2-.7,.2-1-.1-.6,0-1.2,.1-1.8,.1-.8-.2-1.6-.4-2.4,0-.3-.2-.6,0-.9,.4-.9,.1-1.9,.5-2.9,.2-.5-.3-1.3-.2-2,1,1.8,1.5,3.9,2.2,5.8,1.5,4.1,3.2,8.1,4.8,12.1,.4,.9,.5,1.9,.3,2.9,0,.3,0,.6,.1,.8,0,.2,.3,.5,.1,.7-.6,1-.2,2.1-.5,3.1-.3,1-.2,1.9,.4,2.7,0,0,0,.1,0,.2-.7,1.6,.2,3.3,0,4.9-.1,.7,.2,1.6,0,2.4-.1,.5-.3,.9-.4,1.4-2.2,.9-4.5,1.3-6.7,1.9Z"/><path class="uuid-0318c576-466c-403f-b064-c68f5a83f87e" d="M138,106.8c.3,.2,.6,.4,.5,.7-.3,1.2,.3,2.3-.2,3.5-.1,.3-.1,.6,0,.9,.3,1.5,.4,3.1,.2,4.6-.2,1.8,0,3.5,0,5.3,0,1-.4,2-.2,3.1,.3,1.7,.4,3.4,0,5,0,.3,.1,.7,.1,1,.1,1.7,.3,3.5-.1,5.2-.1,.5-.2,1.2,.2,1.7,.2,.3,0,.7,0,1-.2,1.6-.3,3.3-.1,4.9,.1,1.4,.5,2.9-.1,4.3-.1,.3,0,.5,0,.7,.3,1.5,.2,3,.2,4.5,0,.7-.4,1.5-.1,2.3,0,0-.1,0-.2,0-.4-.1-.9-.1-1.3,0-.9-.2-1.8-.2-2.7-.2-.7-.6-.5-1.5-.5-2.2,0-2.3,0-4.6-.2-6.9,0-1.2,0-2.4,0-3.6,0-1,0-2,0-3-.1-1,.1-2,0-3,0-3.3,.1-6.6,0-9.9,0-2.1,0-4.2,0-6.3,0-1.3,.2-2.7-.2-4,.2-.7,.8-.9,1.3-1.1,.9-.4,1.4-1,1.6-2,.4-1.9,.8-3.8,1.2-5.7,0-.4,.1-.8,.4-1Z"/><path class="uuid-e3dd0c13-1509-4e1b-9d61-507de5a560c0" d="M148.4,100c-.2,1.3-.2,2.6,.1,3.9,.2,.5,0,1-.1,1.5-.3,1.3-.3,2.6,0,3.8,.3,1.7-.4,3.2,0,4.8,0,.3,0,.6-.2,.9,0,.2-.2,.5,0,.7,.7,.8,.2,1.6,.2,2.4,0,1.5-.3,3,.2,4.5,.2,.5,0,.9-.1,1.3-.2,1.2-.2,2.5,0,3.7,.2,1.6,0,3.2,0,4.8,0,1.7,.2,3.4,0,5.1-.1,1.1-.2,2.3,0,3.5,.1,.5,0,1,0,1.5-.3,2.1,.2,4.2,0,6.2-.1,1.2,0,2.3,0,3.5,0,.8,.3,1.7,0,2.6-.8,.3-1.7,.2-2.5,.4-.5-1.2-.7-2.3-.4-3.6,.3-1.2,.2-2.4,0-3.6-.1-.9,0-1.7,0-2.6,.2-1.2,.1-2.5,0-3.7-.1-.8-.1-1.6,0-2.4,.2-.8,.2-1.6,0-2.4-.3-1.8,0-3.6,0-5.3,0-.4,0-.9,0-1.2-.6-1.8-.2-3.5,0-5.3,0-.4,0-.9-.1-1.3-.4-1.1-.3-2.2-.4-3.2,0-.3,0-.5,0-.8,.6-.9,.3-1.8,0-2.6-.4-1.4-.1-2.6,.3-3.8,.3-.7,.1-1.5,0-2.2-.2-1-.3-2,0-3,.3-1.1,.2-2.2,0-3.3-.1-.5-.2-1,0-1.5,.4-1.5,.3-3,0-4.6-.1-.8,0-1.5,0-2.3,.2-1.3,.1-2.6,0-3.8,0-.4-.1-.9,0-1.3,0-.3,.1-.7,.6-.7,.7,3,1.4,6.1,2.3,9.1,0,.2,0,.4,0,.6Z"/><path class="uuid-e3dd0c13-1509-4e1b-9d61-507de5a560c0" d="M146,90.4c-.7,.4-.5,1.1-.3,1.6,.3,1.2,0,2.5,.3,3.8,.1,.5-.3,.9-.4,1.4,0,.7,.1,1.4,.2,2.1,.2,1.5,0,3-.3,4.5-.2,.7,.3,1.3,.3,1.9,0,1,0,2-.3,3-.2,.6,0,1.3,0,1.9,.2,1.1,.4,2,0,3.1-.3,.9-.5,1.9-.2,3,.3,.8,.6,1.8,0,2.9-.4,.8-.2,2,0,3,.2,1.1,.4,2,.2,3.1-.3,1.5-.3,3.1,0,4.7,.2,1,.2,2-.1,3-.3,1.1,.2,2.1,.2,3.2,0,1,.3,1.9-.1,2.9-.2,.5,0,1.2,0,1.8,.2,1.5,.5,3,0,4.5-.1,.5,0,1,0,1.5,.2,1.6,.5,3.1-.1,4.6-.2,.4-.1,1,0,1.4,.2,.6,.2,1.1,.2,1.7-.9,.1-1.8,.3-2.7,.2,.9-.8,.7-1.9,.6-2.8-.1-1.4-.6-2.7,0-4.2,.3-.7,.2-1.5,0-2.2-.2-.6-.2-1.2-.3-1.9,0-.8,0-1.4,.3-2.2,.2-.7,.2-1.5,0-2.2-.3-1.2-.7-2.5,0-3.7,.1-.2,.1-.4,0-.7-.2-1.5-.2-3-.7-4.5,0-.2-.2-.4,0-.5,1.1-.9,.6-2,.4-3.1-.2-.9,.2-1.9-.5-2.7,0,0,0-.4,0-.4,1-1,.6-2.1,.4-3.2-.2-.8,0-1.7-.4-2.5,0,0,0-.2,0-.3,1.1-1.1,.4-2.3,.3-3.5-.2-1.3,0-2.6,.2-3.9,.3-1.3-.2-2.6-.3-3.9,0-.9,.3-1.7,.3-2.5,.1-1.4-.4-2.6-.3-4,0-.3,0-.5,0-.8,.5-1,.4-2.1,.2-3.3-.2-1.1-.4-2.2,0-3.3,.3-.7,.3-1.4,.1-2.2-.3-1.3-.8-2.7,0-4.1,0-.2,0-.4,0-.7,0-1.5-.3-2.9-.7-4.4-.2-.8,.4-1,.9-1.2,.6,3.2,1.3,6.4,1.9,9.6Z"/><path class="uuid-2807c823-5cc5-4094-86ab-ab54023bb2f5" d="M132.6,155.5c-1.2-.1-2.4-.3-3.7-.4-.4-.5-.1-1.1-.1-1.7-.1-2.2,0-4.5-.1-6.7,0-1.5,.1-2.9,0-4.4-.2-1.3-.2-2.6,.2-3.9,0-.2,0-.3,0-.5-.3-1.5,0-3.1-.2-4.6,0-.1,0-.3,0-.4,.6-1.9,0-3.9,.2-5.8,0-.1,0-.3,0-.4,.6-1.9,0-3.7,0-5.6,0-.7,.2-1.4,.2-2.1,0-.3,.2-.5,.4-.6,1-.6,1.9-1.1,2.9-1.6,.2,0,.4-.1,.5,0,.5,.4,.3,.9,.3,1.4,0,.7-.4,1.4,0,2.1,.2,.3,0,.6-.2,.9-.3,.6-.5,1.3,0,1.9,.2,.3,.2,.7,.1,1.1-.1,.8-.4,1.6,0,2.3,.1,.2,0,.5-.2,.7-.2,.6-.3,1.2,0,1.8,.3,.7,0,1.3,0,2,0,1.5-.7,3.1,0,4.6,.2,.4,0,.8,0,1.2,0,1.1,.1,2.2-.3,3.3,0,0,0,.1,0,.2,.4,1.3,.3,2.6,.3,4,0,.1,0,0,0,0-.6,1.8,.1,3.6,0,5.4,0,1.4-.8,2.9,0,4.4,.3,.5,0,.9-.5,1.2Z"/><path class="uuid-5f6daa1e-1ff6-498e-bdc5-61a6c09213ac" d="M129.1,119.1c.2,.9-.3,1.8,0,2.7,.2,.8-.1,1.7,.2,2.6,.2,.4,.1,.9,0,1.3-.4,1.7-.2,3.3-.2,5,0,.7,.1,1.4-.2,2.1-.3,.6,.3,1.3,0,2-.3,.9,0,1.8,.1,2.7,0,.6-.3,1.2-.2,1.6,.1,1.1-.1,2.1,0,3.1,0,1,.1,2,.1,3,0,1.6-.4,3.3,.2,4.9,0,.1,.1,.4,0,.5-.5,.7-.2,1.6-.1,2.3,0,.7-.1,1.4,0,2.2-.3,0-.6,0-1,0-.3-.3-.8,0-1.2-.2-.2-.2-.5-.1-.8-.2-.4-.5-.3-1-.3-1.6,0-2.8,0-5.6,0-8.4-.1-4.7,0-9.4,0-14.1,0-2.8,0-5.6,0-8.4,0-.5,0-1,.3-1.5,.2-.5,.7-.6,1.1-.9,.7-.2,1.2-1.1,2.1-.8Z"/><path class="uuid-2807c823-5cc5-4094-86ab-ab54023bb2f5" d="M132.6,155.5c.5-.5,.4-1.1,.1-1.7-.4-.7-.4-1.5,0-2.2,.4-.6-.3-1.3,0-2,.2-.5,.3-1.1,0-1.7-.3-.4-.5-1.1-.2-1.6,.6-1.3-.2-2.6,.5-3.9,0-.1,0-.4-.2-.5-.4-.9-.5-1.9,0-2.8,.3-.6-.2-1.1,0-1.7,.2-.8,.3-1.7-.2-2.5,0-.1-.1-.4,0-.6,.4-1.1,0-2.3,.4-3.4,.2-.6,.3-1.2-.1-1.8-.1-.2-.1-.5,0-.7,.4-1.4-.2-2.8,.3-4.2,0-.3,.1-.6,0-.8-.8-.8-.4-1.6,0-2.4,0-.1,.3-.3,.2-.4-.9-.8-.2-1.6-.1-2.5,0-.4,0-.8-.2-1.1,0-.5,.4-.6,.8-.4,.7,1.1,.5,2.3,.4,3.5,0,.2-.2,.5-.2,.7,.2,2,.1,4,0,6,0,.9,0,1.9,0,2.8,.1,.9,0,1.8,0,2.7-.1,1.1,0,2.1,0,3.1,0,1.2,.1,2.3-.1,3.5-.2,.8,.2,1.6,.1,2.4-.1,1.3,0,2.6-.2,3.9-.1,.5,.1,.9,.2,1.3,0,1.9,0,3.8,.1,5.8,0,1.1-.1,2.1,.2,3.2-.5,0-1,0-1.5,0Z"/><path class="uuid-a19af91f-b99e-4c6c-8ec8-789d43ea767a" d="M136.8,155.7c.4-.3,.9-.3,1.3,0-.4,0-.9,0-1.3,0Z"/><path class="uuid-007a2db9-4083-4390-bc4f-fa1733a47983" d="M164,122c-.1,1.2,.2,2.3-.2,3.5,.1-1.2-.2-2.3,.2-3.5Z"/><path class="uuid-007a2db9-4083-4390-bc4f-fa1733a47983" d="M164.2,117c0,.6,.2,1.3-.2,1.9,0-.6-.2-1.3,.2-1.9Z"/><path class="uuid-007a2db9-4083-4390-bc4f-fa1733a47983" d="M164.4,112.9c0,.6,.2,1.2-.2,1.7,0-.6-.2-1.2,.2-1.7Z"/><path class="uuid-007a2db9-4083-4390-bc4f-fa1733a47983" d="M164.5,109.5c0,.5,.2,1.1-.2,1.5,0-.5-.2-1.1,.2-1.5Z"/><path class="uuid-007a2db9-4083-4390-bc4f-fa1733a47983" d="M164.9,103.9c0,.4,.2,.9-.2,1.3,0-.4-.2-.9,.2-1.3Z"/><path class="uuid-007a2db9-4083-4390-bc4f-fa1733a47983" d="M165.5,96.9c0,.4,.2,.9-.2,1.3,0-.4-.2-.9,.2-1.3Z"/><path class="uuid-007a2db9-4083-4390-bc4f-fa1733a47983" d="M166.7,86.5c0,.4,.2,.8-.2,1.2,0-.4-.2-.8,.2-1.2Z"/><path class="uuid-007a2db9-4083-4390-bc4f-fa1733a47983" d="M164.7,106.6c0,.4,.2,.8-.2,1.2,0-.4-.2-.8,.2-1.2Z"/><path class="uuid-007a2db9-4083-4390-bc4f-fa1733a47983" d="M165.1,101.6c0,.4,.2,.8-.2,1.2,0-.4-.2-.8,.2-1.2Z"/><path class="uuid-007a2db9-4083-4390-bc4f-fa1733a47983" d="M165.3,99.1c0,.4,.2,.8-.2,1.2,0-.4-.2-.8,.2-1.2Z"/><path class="uuid-007a2db9-4083-4390-bc4f-fa1733a47983" d="M166.1,91.4c0,.4,.2,.8-.2,1.2,0-.4-.2-.8,.2-1.2Z"/><path class="uuid-007a2db9-4083-4390-bc4f-fa1733a47983" d="M166.5,88.1c0,.4,.2,.8-.2,1.2,0-.4-.2-.8,.2-1.2Z"/><path class="uuid-007a2db9-4083-4390-bc4f-fa1733a47983" d="M165.7,95c0,.4,.2,.8-.2,1.2,0-.4-.2-.8,.2-1.2Z"/><path class="uuid-007a2db9-4083-4390-bc4f-fa1733a47983" d="M167.1,83.7c0,.3,.1,.7-.2,1,0-.3-.1-.7,.2-1Z"/><path class="uuid-007a2db9-4083-4390-bc4f-fa1733a47983" d="M166.3,89.8c0,.3,.1,.7-.2,1,0-.3-.1-.7,.2-1Z"/><path class="uuid-007a2db9-4083-4390-bc4f-fa1733a47983" d="M165.9,93.5c0,.3,.1,.7-.2,1,0-.3-.1-.7,.2-1Z"/><path class="uuid-357f38f6-8127-4a4d-addf-76868fcf994f" d="M80.9,101c2.1-1.4,4.3-2.5,6.5-3.7,.7-.4,1.5-.8,2.2-1.2,.3-.2,.5-.2,.8,0,.2,.2,.2,.5,0,.7-.6,.6,0,1.4-.2,2.1,0,.9-.6,1.9,0,2.7,.6,.9-.2,1.8,0,2.6,.2,.9,.2,1.8,0,2.7,0,.2,0,.5,0,.8,.4,.7,.6,1.4,0,2.1-.3,.4,.3,.7,.2,1.2-.2,.8-.5,1.7-.2,2.4,.4,1.1,0,2.2,.2,3.2,0,.7,0,1.3-.1,2-.1,.8-.4,1.6,.3,2.2,0,0,0,.3,0,.4-.7,1.4,0,2.9-.5,4.3,0,0,0,0,0,0,.7,1,.3,2.2,.2,3.3,0,.2,0,.4-.1,.7-.3,1.2-.3,2.3,.1,3.4,0,0,0,.1,0,.2-.8,1.2,0,2.7-.7,3.9-.3,.5-.4,.5-.8,.2-2.9-2.6-5.7-5.4-8.3-8.4,.4-.5,.4-1.1,.4-1.7,0-1,0-2.1,.2-3.1,.2-.9-.1-2-.1-3,0-1-.2-2.1,.1-3.1,0-.2,0-.4,0-.7-.3-1.5-.3-3-.2-4.4,.2-1.9-.3-3.8,0-5.6,.2-1.7,.1-3.3,0-5,0-.4-.2-.9-.2-1.3Z"/><path class="uuid-02555fb1-a797-48ca-b9ac-444f5fe4aac1" d="M80.9,101c.3,.3,.4,.7,.4,1.2,0,1.1,0,2.2,.4,3.2,0,.2,.1,.3,0,.4-.8,1-.5,2.1-.3,3.1,.2,.9-.3,1.8,.3,2.7,.2,.3-.5,.5-.4,.9,.2,1.7-.1,3.4,.3,5,0,.3,.2,.4,0,.7-.1,.1-.3,.4-.2,.5,.5,.8-.1,1.5,.1,2.3,.3,1-.4,2,.4,2.9,.1,.1,0,.3-.2,.4-.2,.1-.4,.3-.3,.5,.4,.9-.2,1.8,.1,2.7,.2,.6,.1,1.2-.7,1.4-2.3-2.8-4.5-5.7-6.5-8.7-.2-.2-.3-.5-.4-.7-.4-.6-.8-1.3-1.2-1.9,.3-.7,.3-1.4,.2-2.1-.1-.8-.3-1.6,0-2.4,0,0,0-.2,0-.3-.8-1.6,.3-3.2-.3-4.9-.2-.6,.4-1.4,0-2.1,.4-.8,1.2-.9,1.9-1.3,1.1-.7,2.2-1.4,3.5-2,1-.5,1.9-1,2.9-1.5Z"/><path class="uuid-357f38f6-8127-4a4d-addf-76868fcf994f" d="M78,102.5c-1.5,.9-3.1,1.9-4.6,2.8-.2,.1-.5,.2-.6,.5-.8,.6-1.5,1.2-2.5,1.5,0,0-.2,0-.2-.1,2.5-1.7,5.1-3.2,7.7-4.6,0,0,.2,0,.2,0Z"/><path class="uuid-e3dd0c13-1509-4e1b-9d61-507de5a560c0" d="M143.7,59.9c-.2-1.2-.5-2.3-.1-3.5,0,0,0-.2,0-.4,.2-.2,.4-.3,.7-.3,1.8-.3,3.5-.9,5.1-1.6,1-.4,1.2-.2,1.4,.8,.3,1.2,.2,2.4-.5,3.5-.3,1.4-.5,2.7-.8,4.1-.6,1.1-.7,2.4-1.7,3.4-1.1-2-2-4-3.5-5.7-.1-.3-.3-.4-.6-.4Z"/><path class="uuid-e3dd0c13-1509-4e1b-9d61-507de5a560c0" d="M143.5,75.9c-.3-.2-.6-.4-.2-.8,.1,.2,.2,.5,.2,.8Z"/><path class="uuid-e498d393-fbb0-47c3-9978-238333628aec" d="M64.4,82.7c0-.2,0-.3,0-.5,0-24.7,0-49.4,0-74.1,.8,0,1.7,0,2.5,0,1.1,0,1.7,.7,1.4,1.7-.2,.7-.3,1.3,0,1.9,.3,.7,0,1.5,0,2.2,0,1,.5,2.1-.2,3.1-.2,.3,.4,.6,.3,1-.4,1.7,.3,3.5-.3,5.1-.2,.4,.4,.7,.3,1.1-.3,1.6,.2,3.3-.3,4.9,0,0-.1,.2,0,.3,.9,1.5,0,3.1,0,4.7,0,1.6,0,3.3,0,5,0,1.3-.1,2.6,0,3.8,0,1.6,.4,3.2-.1,4.8-.2,.5,.3,.8,.3,1.3,0,.8-.3,1.5-.2,2.3,0,1.6,.3,3.3,.2,4.9,0,1.3-.1,2.6,0,3.8,.2,1.5-.2,3,.2,4.4,0,0,0,.2,0,.3-.4,1.3,.2,2.6,0,3.9-.1,.6-.2,1.4,0,2,0,0,0,.2,0,.3-.3,1.7,0,3.3,0,5,0,1.2-.5,2.4,0,3.6,.2,.5,0,1.1-.2,1.7-.2,1.1-.2,2.4-.1,3.4,.2,1.5-.4,3,0,4.4,0,.1,0,.3,0,.4-.5,1.3,.2,2.7-.2,4.1-.2,.8-.8,1.1-1.3,1.6-.3,.4-.8,.6-1.2,1-.3-3.1-.7-6.2-1-9.4,0-1,0-2,0-3-.2-.3,0-.7-.2-1Z"/><path class="uuid-5f6daa1e-1ff6-498e-bdc5-61a6c09213ac" d="M126.2,120.7c-.2,1.5-.3,3.1-.1,4.7,0,1,0,2.1,0,3.1,0,2.3,0,4.5,0,6.8,0,2.1,.1,4.3,0,6.4-.2,2.5,0,5.1,0,7.6,0,1.8,0,3.7,0,5.5-1.5-.4-3.1-.4-4.6-1,0-1.5,.2-3,.1-4.5-.1-1.7-.2-3.4,0-5.1,.1-1.9-.2-3.9,0-5.8,.2-1.4-.2-2.9,0-4.4,.1-2.2,0-4.4,0-6.7,0-.9,.4-1.8,0-2.6-.5-1.4,0-2.8-.6-4.1-.2-.3,0-.6,0-.8,.8-1.6,.1-3.2,0-4.7,0-.9,0-1.6,.4-2.4,0,0,.1-.3,0-.4-.7-1.2-.3-2.5-.1-3.8,.2-1.6-.1-3.2,0-4.8,.2-2.3,0-4.6,0-6.9,0-.9,0-1.8,.2-2.7,0-.3,0-.5-.3-.6,1.1-3.4,2.2-6.9,3.5-10.2,1.1-3.6,2.6-7.1,4-10.7,0-.1,.2-.2,.2-.3,.6,.6,.4,1.4,.5,2.1,.3,2-.3,3.9-.1,5.9,.2,2.6-.3,5.2,0,7.8,.2,1.3-.2,2.7-.2,4,0,.7,0,1.3,0,2,.2,1.6,0,3.1,0,4.7-.1,.9-.6,1.6-1,2.4-.5,.8-.9,1.6-1.4,2.4-.7,1.4-1.8,2.4-2.4,3.9-.3,.8-.8,1.4-1.4,1.9-.4,.4-.2,.8-.1,1.2,.5,1.9,1.1,3.8,1.7,5.7,.4,1.1,.7,2.3,1,3.5,.1,.4,.3,.9,.8,1Z"/><path class="uuid-02555fb1-a797-48ca-b9ac-444f5fe4aac1" d="M70,107.1c0,0,.2,0,.3,0-.3,.7-1,1-1.7,1.2,0,0,0-.2,0-.2,.4-.4,.9-.7,1.5-.9Z"/><path class="uuid-a4209813-ac34-443c-a09e-0cd6a9b21833" d="M163.4,12.8c2.3,.8,4.6,1.8,6.7,2.9-.2,.6-.4,1.3-.6,1.9-.3,1.4,.3,2.7,.3,4,0,.5,.1,1.1-.1,1.6-.2,.5-.3,1-.3,1.6,.1,1.7,.7,3.4,.1,5.1-.4,1.2,0,2.5,.3,3.8,0,.5,.2,1.1,0,1.6-.3,.8,0,1.7,0,2.5,0,1.3,.6,2.6,0,3.9-.2,.4-.3,1-.1,1.5,.5,1.3,.1,2.7,.2,4,0,.7,0,1.8-1.1,2.2-1.8,.7-3.3,1.8-5.1,2.4-.7-.1-.6-.6-.6-1.1,0-1.6,.1-3.3,.1-4.9,0-2.3,0-4.6,0-6.9,0-1.4,0-2.7,0-4.1,.1-1.3-.2-2.6,0-3.9,0-.3-.1-.5,0-.8,.5-2-.1-4.1,0-6.1,.2-2.1-.1-4.1,0-6.1,0-1.3,.2-2.7,0-4,0-.4,0-.8,.4-1.1Z"/><path class="uuid-a19af91f-b99e-4c6c-8ec8-789d43ea767a" d="M150.3,58.6c0-.5,0-.9,.2-1.3,.4-.9,0-1.9-.1-2.8,0-.4-.4-.2-.7-.1-1.7,.7-3.4,1.3-5.2,1.6-.3,0-.6,0-.9,.1-1.4,.2-2.9,.5-4.3,.2-.3,0-.7,0-1,0-1.3-.2-2.6-.6-3.9-1,0-.1,0-.2,0-.3,.4-.2,.8,0,1.2,.1,1.2,.3,2.4,.7,3.6,.7,5.4,.3,10.3-1.4,14.7-4.6,1.1-.9,1.5-1.8,1.4-3.2-.3-3.5-.4-7-.6-10.5-.2-2.9-.2-5.9-.5-8.8-.1-1,0-2,.6-2.9,.5-.9,1.1-1.8,1.4-2.7,0-.4-.4-.4-.6-.5-3.8-.6-7.6-.9-11.5-.9-3.6,0-7.2,.3-10.6,1.2-.4,.1-.8,.3-1.2,.1-.1,0-.2-.1-.2-.3,.5-.8,1.4-.6,2-.9,2.5-.5,5.1-.9,7.6-1,2.4,0,4.7-.1,7.1,.2,1.2,.1,1.6-.3,1.5-1.5,0-1.3-.3-2.6-.2-3.8,.2-1.8,0-3.6,0-5.4,0-.4,0-.9,.5-1.1,1.9,0,3.7,.6,5.5,1.1,.7,.2,1.5,.4,2.2,.6,.5,.4,.5,.9,.4,1.4-.4,1.6-.1,3.2,0,4.8,0,.8,0,1.6,0,2.3-.1,.8-.1,1.5,0,2.3,.2,1.2,.2,2.4,0,3.6-.3,1.3,.2,2.5,.1,3.8,0,.7,0,1.5-.1,2.2-.4,1.5,.2,3,.1,4.5,0,.4,0,.8,0,1.1-.4,1.5-.1,3.1,0,4.6,0,.6,.1,1.3,0,1.9-.3,1.3,0,2.6,0,3.8,.1,2.1-.3,4.1,0,6.2,0,.3,0,.6-.3,.9-2.6,1.4-5.3,2.6-7.9,4Z"/><path class="uuid-be6255e2-c9ab-46b2-a022-de096f15ea5e" d="M158.2,54.6c0-1.6-.4-3.2,0-4.7,.4-2.4-.5-4.7,.2-7.1,.2-.8,0-1.8-.2-2.7-.2-1.1,0-2.1,.2-3.2,0-.9,.2-1.9,0-2.8-.4-1.2,0-2.3,0-3.4,0-1,0-2,0-2.9-.2-1.2,0-2.3,0-3.4,0-.6,0-1.2,0-1.7-.3-1.3-.3-2.6,0-3.8,.3-1.2,0-2.3-.1-3.4,0-1.1,0-2.2,.2-3.3,0-.4-.1-.7-.2-1.1,1.8,.4,3.5,1.1,5.2,1.7,0,2.1,.1,4.2,0,6.3-.2,1.6,.2,3.2,0,4.8-.2,1.1-.2,2.5,.1,3.7,.1,.5,0,.9,0,1.4-.3,1.7-.2,3.5,0,5.2,0,.7-.2,1.2-.2,1.9,0,1.8,0,3.6,.1,5.4,0,2,0,4,0,6,0,1.1,0,2.1-.2,3.2,0,.5,0,1,.4,1.3-1.7,1-3.5,1.9-5.4,2.7Z"/><path class="uuid-680db6bf-deab-4f40-b914-105aaf6c736b" d="M37.5,101.8c1.4,1.3,2.8,2.7,4.1,4.2,.4,.5,.9,.8,1.3,1.2,.2,.2,.3,.5,.2,.7-.6,1.8-.3,3.6,0,5.3,.1,.8-.4,1.3-.3,2.1,.2,1.1,0,2.2,.3,3.3,.3,1-.3,1.9-.3,2.9,0,1.2,.2,2.4,.2,3.6-.2,2.3,.2,4.6,.1,6.9,0,1.5-.1,2.9,0,4.4,.1,1.9-.1,3.8-.1,5.7,0,0,0,.1,0,.2,.5,2.7-.2,5.4,.3,8,.1,.6-.2,1.1-.3,1.7,0,1-.1,2,0,3,.3,1.8-.3,3.5-.2,5.2,0,.6,.4,1.2,0,1.8-.9,.8-1.8,1.5-2.6,2.4-.5,.5-.7,.4-1.1,0-.6-.7-1.2-1.3-1.8-2,0,0-.1-.2-.1-.3,.2-1.8-.3-3.6-.1-5.5,.1-1.4,.3-2.7,0-4.1-.2-1.2,0-2.4,0-3.6,0-2,0-4.1,0-6.1,0-3.2,0-6.3,0-9.5,0-3.2-.2-6.5,0-9.7,0-.4,0-.8-.1-1.2-.2-.6-.2-1.2,0-1.7,.3-1.1,.4-2.3,.2-3.3-.4-2.8,.4-5.7-.2-8.5-.2-1.1,.3-2.2,.2-3.3,0-.7,0-1.3-.1-2-.1-.6-.3-1.4,.6-1.8Z"/><path class="uuid-9ade552c-000c-4a03-9200-68eadab648a5" d="M42.7,162.1c-.4-1.2-.4-2.5-.1-3.6,.5-2-.2-4,0-6,.3-2.3-.2-4.6,0-6.9,.2-1.7-.5-3.3,0-4.9,.2-.6-.5-1.4,.3-2,.1-.1-.2-.7-.3-1.1-.1-1.4,0-2.8-.1-4.2,0-.6,.2-1.2,.2-1.9,0-1.4-.2-2.8-.4-4.2,0-.3-.2-.6,.3-.8,.2,0,.3-.2,.2-.4-.6-1.7-.1-3.5-.5-5.2,0-.1,0-.3,0-.4,.8-.8,.3-1.6,.2-2.5-.1-1.1,.1-2.3-.2-3.4,1-1.4,0-2.8,.1-4.2,0-1.1,.2-2.1,.4-3.2,1.3-.7,2.1-2,3.3-2.9,.4-.3,.7-.8,1.1-1,.2,0,.3-.4,.6-.2,.2,.2,.4,.4,.3,.7-.2,.4,0,.7,.1,1.1,.2,.3,.2,.7,0,1-.3,.9-.2,1.8-.2,2.6-.1,.6-.7,.9-1.1,1.3-.6,.4-.6,.8,0,1.3,.3,.3,.6,.6,.7,1,.9,1.3,1,2.7,.6,4.1,0,.2-.1,.3,0,.5,.7,1.4,.2,3,.2,4.4,0,1.9,.3,3.7,0,5.6,0,.7,.2,1.3-.2,2,0,0,0,.1,0,.2,.6,1.1,.1,2.3,.2,3.5,.1,2.8,.2,5.5,.2,8.3,0,1.1,.2,2.2,0,3.3-.3,2,0,4-.1,5.9,0,1.5-.3,3,0,4.5,.2,.8-.2,1.7-.4,2.5-1.1,1.1-2.2,2.2-3.4,3.2-.8,.6-1.3,1.5-2.2,2Z"/><path class="uuid-faffa117-9ab5-4a2d-b9f2-4818f38b437c" d="M37.5,101.8c-.6,.5-.5,1.2-.3,1.8,.3,1.5,.2,3.1,0,4.6,0,.3,0,.5,0,.7,.3,1.4,.5,3,.2,4.3-.4,1.9,.2,3.7,.1,5.6,0,1-.5,1.9-.3,2.9,.1,.8,.3,1.7,.3,2.5,0,1.2-.3,2.4-.1,3.6,.2,1.2,.2,2.3,.1,3.5-.2,2.2,0,4.3,0,6.5,0,.6-.2,1.1-.2,1.6,0,1.3,.3,2.6,.2,3.9,0,.6,0,1.2-.1,1.8-.4,1,.3,2,.1,3.1-.2,1.3-.2,2.7,0,4,.2,2.2-.3,4.3,0,6.4,.2,1.3,.1,2.6,0,3.9-1.1-1.1-2.2-2.3-3.2-3.4-.6-.7-1.2-1.3-1.8-2-.2-1.5-.1-3,.1-4.6,.1-.7,0-1.5-.1-2.3-.2-1.2,0-2.3,0-3.4,.2-1,0-2-.1-3,0-.5-.2-1,0-1.4,.3-1.8,.3-3.5,0-5.3,0-.3,0-.6,0-.9,.4-1.8,.4-3.5,0-5.3,0-.3,0-.6,0-.9,.4-1.9,.3-3.7,0-5.6,0-.4,0-.8,0-1.1,.5-1.5,.1-3,0-4.5,0-.8,0-1.6,.1-2.5,.2-1.2,0-2.4-.1-3.6,0-.9-.1-1.8,.1-2.8,.2-.9-.1-1.9-.2-2.8,0-.6-.1-1.1,0-1.7,.3-1.7,.3-3.4,0-5.1-.1-.7,0-1.3,.2-2,.1-.5,.3-1,1-1,.9,.8,1.8,1.6,2.5,2.6,.2,.3,.5,.5,.8,.7,.4,.4,.8,.9,1.2,1.3Z"/><path class="uuid-fd69c8ab-7261-4530-8750-b92bee742132" d="M33.1,97.1c-1.1,.8-1,2.1-.8,3,.3,1.8,.2,3.6,0,5.4-.1,1.1,.2,2.2,.3,3.2,0,.4,.2,.8,0,1.1-.2,.4-.3,.9-.2,1.3,.1,1.4,.2,2.8,.4,4.2,0,.6-.4,1.1-.4,1.7,0,1.4,.2,2.7,.3,4.1,0,.2,.2,.5,0,.7-.7,1.5-.3,3.1-.2,4.6,.1,1.4-.3,2.7-.3,4,0,.8,.2,1.7,.3,2.5,0,.8,0,1.5-.1,2.3-.2,.9,0,1.8,0,2.8,.2,1.4,.2,2.9-.2,4.4-.2,.9,0,1.9,.2,2.7,.2,1.2-.4,2.2-.2,3.4,0,.3,0,.7,0,1,.4,1.7,.3,3.5,0,5.2,0,.6,0,1.1,.2,1.6,0,.3,.2,.7-.3,.7-.4-.2-.7-.6-1-1-1.3-1.5-2.7-3-4-4.4,.4-.8,0-1.6,0-2.3-.1-1.3,.4-2.5,.2-3.7-.2-1.1-.1-2.2-.2-3.3,0-.8,0-1.6,.3-2.4,.3-1.1-.2-2.1-.2-3.1,0-1.2,.3-2.5,.3-3.7,0-.2,0-.4,0-.6-.6-1.9-.1-3.9,0-5.8,0-.2,.1-.3,0-.5-.9-1.9-.2-3.8,0-5.7,0-.2,.1-.3,0-.5-1-1.6-.3-3.3-.2-4.9,0-1.1-.3-2.1-.3-3.2,0-.2-.2-.5,0-.7,.4-.8,.2-1.6,.4-2.4,.2-1.1-.3-2-.3-3,0-.3-.2-.6,0-.8,.6-.9,.3-2,.3-2.9,0-.8-.1-1.6-.2-2.4,0-.2,0-.3,0-.4,1.1-1.4,2.7-2.4,4-3.7,.3-.2,.5-.1,.6,0,.5,.5,.9,1,1.4,1.5Z"/><path class="uuid-178709df-2fe9-485b-b1ad-25bc05858ee8" d="M48.3,156.9c-.2-.1-.2-.3-.1-.5,.2-1,.6-1.9,0-2.9-.1-.3,0-.7,0-1.1,0-1.9,.2-3.9,.1-5.8,0-1.4,.2-2.8,.2-4.1,0-.7-.2-1.4-.2-2.1,0-1.2,.1-2.4,0-3.6,0-.4,0-.9-.2-1.3,0-.2-.2-.4-.1-.5,.6-.9,0-1.8,0-2.6,0-.4,0-.9,.1-1.3,0-.2,.2-.5,0-.6-.9-1.4,.4-2.9-.3-4.4-.1-.3,.1-.8,.2-1.2,0-.2,.1-.5,0-.7-.7-2,0-3.9,0-5.8,0-.1,0-.3,0-.4-.7-.9-.3-1.8-.2-2.7,.1-1,0-2-.7-2.8,0,0,0-.2,0-.4,.9,0,1.1,.9,1.6,1.4,.3,.3,.5,.6,.7,.9,1.3,1.3,2.6,2.7,3.9,4-.4,1.3-.6,2.7-.2,4.1,.4,1.5,0,2.8,0,4.3,0,.8,0,1.4,.2,2.1,.3,1.3,.1,2.5,0,3.8,0,.8,0,1.7,0,2.5,.1,1.3,0,2.5,0,3.8-.1,.8,0,1.6,0,2.4,0,1.3,.2,2.5,0,3.8-.2,.8,0,1.6,.1,2.4,.2,1.5,.2,3.1-.3,4.6-.2,.7-.9,1.1-1.4,1.5-1.3,1.1-2.4,2.3-3.7,3.3Z"/><path class="uuid-067445e4-d6a4-4c88-afbd-5a877d16e976" d="M203.7,114.5c-.2-1.1-.1-2.2,.1-3.4,.2-1.2,0-2.6-.2-3.9,0-.6-.2-1.3,.1-1.9,.2-.4,.2-.8,.1-1.1-.4-1.3,0-2.6-.3-3.8-.1-.4,0-.8,.2-1.2,.3-.5,.2-1,.1-1.5-.2-1-.2-2-.1-3,0-1.2,.1-2.3,0-3.5,0-1.3-.4-2.7,0-4.1,.3-1.3-.2-2.7-.1-4.1,0-.5,0-.9,0-1.4,.2-1.8,0-3.5-.2-5.3,0-.5,.1-1.1,.2-1.6,.1-.6-.1-1.2,0-1.6,0-1.5-.5-3,0-4.5,.1-.4,.2-.7,.1-1.1-.3-1.8-.4-3.5,0-5.4,.2-1.3,0-2.7-.2-4,0-.6-.2-1.3,.1-1.9,.2-.4,.2-.8,.1-1.1-.4-1.3,0-2.6-.3-3.8-.1-.5,0-.9,.3-1.4,.4-.9,.3-1-.7-.9,1.1-1,2.3-2.1,3.4-3,.4-.3,.8-.7,1.1-1,.4-.4,.9-.2,1,.2,.1,.5,.2,1.1,0,1.7-.2,1.2-.3,2.6-.2,3.8,0,.8,.5,1.6,0,2.4-.1,.2,0,.6,0,.8,.2,1.3,0,2.7-.5,3.9-.3,.7-.4,1.2-.1,1.9,.3,.8,.5,1.6,.7,2.4-.1,.3-.1,.6,0,.9,.2,.6,.2,1.1,0,1.7-.1,.3,0,.6,0,1,.2,1.8,.2,3.6,0,5.4,0,.2,0,.4,0,.6,.4,1.6,.2,3.2,.2,4.8,0,1.4,.3,2.9-.2,4.4,0,.3,0,.6,0,.8,.2,.6,.3,1.2,0,1.8,0,.1,0,.3,0,.5,.4,2.4-.3,4.7,0,7.1,.2,1.4-.2,2.9,0,4.4,.1,1.6,0,3.1,.1,4.7,0,.7-.4,1.4,0,2.1-.7,2.7-1.7,5.3-2.7,7.9-.6,1.5-1.3,3-1.9,4.5,0,0-.1,0-.2,0Z"/><path class="uuid-ae63d742-7f91-4203-824a-fc39d52a4a13" d="M208.5,102.2c-.4-.2-.4-.5-.4-.9,.2-1.4,.4-2.8,.1-4.2-.2-1.2,.3-2.4-.2-3.6-.1-.3,.3-1,.3-1.5,0-2.2-.3-4.3,.1-6.5,0-.4,0-.8-.2-1.1-.3-.7,.5-1.3,.2-2-.6-1.6,.4-3.2-.3-4.8,.9-1.2-.4-2.5,.2-3.7,.2-.3,0-.7,0-1.1-.2-.9-.1-1.8,0-2.8,0-1.5,.2-3,0-4.5,0-.3-.1-.5,0-.8,.3-.5,.3-1.1,0-1.6-.3-.5,0-.8,.3-1,.9,2.9,1.5,5.9,1.9,8.9,.1,1,.5,1.9,0,2.9,0,0,0,0,0,0,.9,.9,0,1.9,.2,2.9,0,.5,0,.9,.4,1.3,.4,.3,.3,.8-.2,1.1-.6,.4-.5,.9,0,1.3,.3,.2,.5,.4,.2,.7-.9,.9-.4,2-.4,3,0,.5,.2,.9-.1,1.4-.1,.2-.2,.4-.1,.6,.9,4.6-.4,8.9-1.4,13.3-.2,.9-.4,1.8-.8,2.7Z"/><path class="uuid-84ccbb72-6780-4baa-b5a9-d0d58d920946" d="M110.2,63.2c-.2-1.1-.2-2.1,0-3.2,.1-1,0-2.1,0-3.1,0-1-.2-2.1,0-3.1,.2-.9,0-1.9,0-2.8-.2-1.5,0-3,.2-4.5,0-.7,0-1.3-.1-2-.2-.7-.2-1.6-.1-2.4,0-1.3,0-2.6,0-3.9-.1-1.3,.2-2.7,.1-4-.2-2.3,0-4.6,0-6.8,0-1.5-.3-3,0-4.5,.2-.8,0-1.8,0-2.7,0-.9-.2-1.8,0-2.7,.3-1.2-.2-2.3,0-3.5,.2-1-.2-2,.2-3.1,.2-.8,0-1.8,0-2.7,1.5-.2,3.1,0,4.6,0,.6,.4,.5,1.2,.6,1.8,0,.2,0,.5,0,.8-.5,1.5-.2,3.1,0,4.6,0,1.1,0,2.2-.2,3.2,0,.3-.2,.6,0,.9,.5,1.1,.2,2.3,.3,3.4,0,.7,0,1.4-.3,2.1,0,.2,0,.3,0,.5,.6,1.9,.5,3.8,0,5.7,0,.1,0,.3,0,.4,.5,1.4,.3,2.8,.3,4.2,0,2.1,.3,4.2,.2,6.2-.2,2.6,.1,5.2,0,7.8-.1,2.4-.3,4.8-.2,7.3,0,.7,0,1.4,0,2.2,0,.6,0,1.1-.4,1.6-.8,.4-1.5,.8-2.3,1.2-.8,.4-1.7,.9-2.5,1.3Z"/><path class="uuid-311cad4d-9123-4efb-9df3-102bc54174b0" d="M115,60.7c0-1,0-2,0-2.9,0-1.5,0-3,.2-4.5,.2-2.3,.3-4.6,.2-6.9-.1-2.1,0-4.2,0-6.3,0-1.9,0-3.8-.2-5.7,0-1,.3-2-.4-3.1-.2-.3,.2-1.5,.4-2.3,0-.5,.2-1,0-1.5-.2-.3-.2-.5,0-.8,.2-.2,.2-.5,0-.6-1-1,0-2.1,0-3.1,0-.6,.2-1.1-.1-1.7-.1-.3-.1-.5,0-.7,.1-.2,.2-.4,.1-.5-.9-.8-.2-1.7-.2-2.6,0-.9,0-1.8,0-2.6,0-.9-.5-1.6-.3-2.2,.2-.8,.2-1.6,.4-2.3,.1-.5,.2-1-.2-1.5-.2-.3,0-.5,0-.8,1.3-.2,2.7,0,4.1,0,.7,.4,.7,1.1,.6,1.8-.3,1.5,0,3.1-.2,4.6-.1,1.4-.4,2.9,0,4.5,.3,1.1,0,2.3,0,3.5,0,.8-.3,1.6,.2,2.4,0,0,0,.2,0,.3-.4,1.3,.3,2.7,0,4-.1,.5-.1,1.1,0,1.6,.1,.6,.2,1.2,0,1.8,0,0,0,.2,0,.3,.6,1.6,0,3.2,0,4.8,0,1.4,.3,3,0,4.5,0,.2-.1,.4,0,.6,.4,1.3,.2,2.7,.1,4-.2,2.6,.3,5.1,0,7.6-.1,1.1,.2,2.3,0,3.4,0,.3,0,.6-.3,.9-1.4,.7-2.8,1.4-4.2,2.1Z"/><path class="uuid-f67af774-775c-493b-a0e2-88203bed3a6b" d="M119.3,58.6c0-1,.2-2,.1-2.9-.2-2.4,0-4.7-.2-7.1-.1-1.2,0-2.6,.1-3.9,0-.4,0-.8,0-1.2-.2-.6-.2-1.2,0-1.8,.2-.5,0-1,0-1.5,0-1.9-.3-3.7,.2-5.6,.1-.4,.1-.9-.1-1.3-.2-.4-.3-.8,0-1.2,.4-.4,.1-.8,0-1.2-.2-.8-.2-1.6,0-2.5,.1-.5,.1-.9-.2-1.4-.1-.2-.3-.4-.2-.5,.9-1.6-.7-3.3,.2-4.9-.5-1,.4-2.1,0-2.9-.7-1.5,.3-2.9-.2-4.4-.2-.5,.5-1,.3-1.6-.4-1.6,.4-3.2-.2-4.7,.7-.2,1.4,0,2.1,0,.7,0,1.5,0,2.2,0,.6,.3,.6,1,.5,1.5-.2,1.3,.4,2.7-.2,4,.6,1.5,0,3.1,0,4.7,0,1.5,0,3,0,4.5,0,.4,0,.8,.2,1.2,.1,.2,.2,.4,.1,.6-.5,1.2,0,2.6-.3,3.8-.2,.7-.5,1.2-.8,1.8-1.6,3.2-1.7,6.4-.9,9.8,.3,1.3,.7,2.6,1.3,3.7,1,1.7,1.1,3.5,.9,5.3-.2,2,.1,3.9,0,5.9,0,.7,0,1.3-.6,1.8-1.5,.7-3.1,1.4-4.6,1.9Z"/><path class="uuid-2807c823-5cc5-4094-86ab-ab54023bb2f5" d="M128.9,98.9c0-1.9,0-3.9,0-5.8,0-1.2-.3-2.5,.2-3.8,.2-.5,0-1.1,0-1.6-.3-.9,0-1.8,0-2.6-.2-1.3,.3-2.6,0-4-.2-1.2-.2-2.6,0-3.9,.3-1.3,.1-2.6-.2-3.8,0-.4,.3-.7,0-1.1,.8-2.5,2-4.9,3-7.3,.4-1,.8-1.9,1.3-2.9,0-.2,.1-.5,.4-.5,.3,0,.4,.3,.4,.6-.2,1-.1,2.1,0,3,.1,1.2-.2,2.4,0,3.7,.2,.8,0,1.6,0,2.4-.1,.9,0,1.8,0,2.7,0,1.1,0,2.3,0,3.4,0,1.3,0,2.6,0,3.9,0,.3-.6,.9,.2,1.1,.3,1-.2,1.8-.4,2.7-.9,4.1-1.9,8.2-3.7,12.1-.3,.6-.3,1.4-1.1,1.5Z"/><path class="uuid-f2e4143d-dc38-4a81-9532-136e880be46b" d="M123.9,56.7c.5-1.2,.2-2.5,.3-3.8,0-1.4-.1-2.7,0-4.1,.3-2-.3-4-1.3-5.8-1.1-2.1-1.5-4.4-1.5-6.7-.1-2.9,.9-5.4,2.3-7.9,.2,0,0-.6,.5-.3,0,0,0,.2,0,.3-.5,1.3-1.2,2.4-1.6,3.7-1.2,3.8-.7,7.4,.9,10.9,.8,1.8,1.7,3.5,2.9,5.1,.2,.2,.3,.5,.4,.8,.4,1.1,1.3,1.9,2,2.7,.7,.7,1.4,1.4,2.3,1.9,.3,.3,.7,.4,.9,.8,0,1.6-.2,3.1,0,4.7,0,.3,0,.5-.3,.6-1.6,.9-2.4,2.4-3.2,3.9,0,.1-.1,.2-.3,.3-.8-1.9-1-3.8-1.3-5.7,0-.4-.1-.8-.2-1.1-.2-1.1-.2-1.2-1.3-.7-.5,.2-1,.5-1.6,.5Z"/><path class="uuid-e3dd0c13-1509-4e1b-9d61-507de5a560c0" d="M133.5,116.6c-.3,0-.6,.1-.8,.4-1.2,.7-2.5,1.2-3.7,2.1-.7,.1-1.2,.7-1.9,1-.2,0-.2,0-.2-.2,.8-.9,1.9-1.2,2.8-1.8,2-1.2,4.1-2.2,5.9-3.5,.7-1.6,.9-3.4,1.2-5.1,.8-3.6,1.3-7.3,1.7-10.9,.1-1.2,.2-2.4,.3-3.6,0-2,.3-4,.2-6.1-.2-3.7-.4-7.5-.7-11.2-.2-2.6-.6-5.2-.6-7.7,0-.7-.3-1.4-.2-2.1,0-.5,0-1.1,0-1.6,0-.4-.2-.1-.4-.2,0,0,0,0,0-.1,0,0,0,0,0,0,0-.3-.2-.8,.3-.9,.4,0,.3,.5,.5,.7,0,3.3,.4,6.7,.7,10,.2,1.9,.3,3.9,.5,5.8,.3,3.9,.4,7.9,.3,11.8,0,2.7-.3,5.4-.7,8.1-.3,1.9-.6,3.7-.8,5.6-.5,2.5-1.1,5-1.6,7.5-.1,.6-.5,1-1.1,1.3-.6,.3-1.3,.6-1.8,1.1Z"/><path class="uuid-2c84ad6c-7028-446c-b556-5ed5d161cab0" d="M137.2,65.7c0,0,0,.1,0,.2,.3,.3,.2,.6,.2,.9,0,.2,0,.3,0,.5-.8,4.5-1.6,9-2.4,13.5-1.3,6.7-2.9,13.3-6,19.4-.2,.4-.4,1-1,1.1-.1,0-.2-.1,0-.2,.2-.8,.8-1.5,1-2.3,1.3-2.2,2.2-4.7,2.9-7.1,.9-3.1,1.6-6.2,2.3-9.2,.5-2.7,.9-5.3,1.4-8,.5-2.8,1-5.6,1.5-8.4,0-.1,.1-.2,.2-.3Z"/><path class="uuid-e3dd0c13-1509-4e1b-9d61-507de5a560c0" d="M132,54.2c-.3-.2-.6-.4-1-.6,0,0,0-.2,0-.2,1.1,0,1.7,.8,2.6,1.1,.3,0,.6,.2,.6,.6,0,0,0,.2,0,.2-.8-.4-1.5-.8-2.3-1.2Z"/><path class="uuid-2afb541a-451e-424e-ae0d-eb449a2da1c5" d="M50.5,107.2c.2-.1,.4-.2,.6-.4q1.3-1,2.5,.2c2.6,2.7,5.3,5.4,7.9,8.1,.5,.5,.6,.8,0,1.2-1.6,1.1-3.2,2.2-4.7,3.3-.5,.4-.8,.4-1.3,0-1.8-1.9-3.7-3.7-5.5-5.6-.3,0-.5-.3-.7-.6-.6-.9-1.5-1.6-2.3-2.4-.5-.5-.5-.8,0-1.2,1.2-.9,2.3-1.8,3.5-2.6Z"/><path class="uuid-32a709ac-67b7-4324-ae0a-39f8253fc3bf" d="M50.5,107.2c-1.1,.9-2.2,1.8-3.3,2.7-.6,.4-.5,.7,0,1.2,.8,.8,1.5,1.6,2.3,2.4,0,0-.2,.1-.3,0-.6-.5-.9-1.2-1.5-1.5q-1.3-1.7,.3-3.1c.1-.1,.3-.2,.4-.4,.8-.4,1.4-1.1,2.1-1.5,0,0,0,.2,0,.2Z"/><path class="uuid-311efec3-0d03-4d87-a0fe-c790795c744c" d="M49.1,113.5c0,0,.2,0,.3,0,.2,.1,.4,.3,.5,.5,0,0,0,.2,0,.3-.3-.2-.6-.4-.8-.8Z"/><path class="uuid-e3dd0c13-1509-4e1b-9d61-507de5a560c0" d="M150.5,9.3c0,.2-.2,.5-.2,.7,.3,1.1-.3,2.2,.2,3.2,.4,.7-.3,1.3-.2,2,0,1.4,.1,2.8,.2,4.2,.1,1.7-.2,2.2-1.9,2-2.3-.3-4.7,0-7-.2-.3-.2-.4-.5-.3-.9,.2-1,0-2,.1-3,.2-1.7,0-3.4,0-5.1,0-1.2,.5-2.5,0-3.8,0-.1,0-.2,.1-.4,3,.2,6.1,.4,9.1,1.2Z"/><path class="uuid-0318c576-466c-403f-b064-c68f5a83f87e" d="M141.4,8.1c.3,.8,.6,1.5,.3,2.5-.2,.7,0,1.6,0,2.4,0,.4,0,.7,0,1,0,.1-.2,.3-.1,.3,.9,1,0,2.2,.2,3.3,0,.8,.3,1.8-.1,2.6-.2,.4,0,.6,0,.9-2.3,.1-4.7,.4-7,.9-.2,0-.5,0-.8,0-.3-.9-.2-1.8-.2-2.7-.1-3.1,0-6.3-.1-9.4,0-.6,.1-1.1,0-1.7,0-.2,0-.3,.3-.3,1.4,0,2.8,0,4.1,0,.3,0,.7,0,1,0,.8,0,1.7,0,2.5,0Z"/><path class="uuid-5f6daa1e-1ff6-498e-bdc5-61a6c09213ac" d="M121.4,8.1c-.7,0-1.4,0-2.1,0-1.4,0-2.8,0-4.2,0-1.6,0-3.2,0-4.8,0-2.6,0-5.1,0-7.7,0-.3,0-.7,.1-1-.2,6.6,0,13.2,0,19.8,0,0,0,0,0,0,.1,0,0,0,0,0,0Z"/><path class="uuid-0318c576-466c-403f-b064-c68f5a83f87e" d="M121.4,8.1c0,0,0-.1,0-.2,3,0,5.9,0,8.9,0,0,.1,0,.2-.1,.3-.4,.2-.9,.1-1.4,.2-1.3,0-2.6,0-3.9,0-.4,0-.8,0-1.2-.3h-2.3Z"/><path class="uuid-e3dd0c13-1509-4e1b-9d61-507de5a560c0" d="M130.2,8.1c0,0,0-.1,0-.2,2.6,0,5.1,0,7.7,0,0,0,0,0,0,.1,0,0,0,0,0,0-1.5,0-3,0-4.4,0-1.1,.5-2.2,.5-3.3,0Z"/><path class="uuid-be6255e2-c9ab-46b2-a022-de096f15ea5e" d="M138,8.1c0,0,0-.1,0-.2,.3,0,.7-.1,1,.2-.3,0-.6,0-1,0Z"/><path class="uuid-752a1835-2bbb-42d0-9567-b0726b54a4d9" d="M64.4,82.7c.3,.3,.1,.6,.2,1-.3-.3-.2-.6-.2-1Z"/><path class="uuid-464b6ea5-a69c-4ccf-8042-3064b8484828" d="M11.3,134.7c-.4-.2-.7-.6-1-1-.9-1.2-2.1-2.2-3.1-3.4-2.1-2.3-4.3-4.6-6.4-6.8-.5-.5-.4-.8,0-1.2,1.4-1.2,2.7-2.3,4-3.5,.2-.1,.3-.3,.4-.5,2-1.7,4-3.5,6-5.2,.5,0,.5,.3,.6,.6,.2,1.9,.1,3.8,0,5.7,0,1.9-.1,3.9,0,5.8,0,2.3-.1,4.5,0,6.8,0,.7-.3,1.4,0,2.1,.1,.3-.2,.7-.7,.6Z"/><path class="uuid-bfb49316-6cb5-499c-9325-5bf1a6eb2162" d="M195.4,55.7c.8-.7,1.6-1.4,2.4-2.1,.2-.2,.4-.2,.6,0,.2,.1,.3,.3,.3,.6,0,.2,0,.4-.1,.6-.3,.9-.4,1.7-.1,2.7,.5,1.6,.3,3.3-.3,4.9-.1,.4-.2,.6,0,.9,.2,.2,.2,.4,.3,.7,.3,1.5,.2,3.1-.3,4.5,0,.3-.2,.6,0,.8,.5,.7,.2,1.5,.4,2.3,.2,1.2-.3,2.2-.5,3.3,0,.3,0,.5,.2,.8,.3,.6,.4,1.2,.3,1.9,0,0-.1,.2,0,.3,.7,1.2-.2,2.1-.4,3.2,0,.6,.3,.9,.4,1.3,.4,1.6,0,3.1-.3,4.6,0,.4,0,.7,.1,1.1,.4,1.3,.7,2.6,0,4-.3,.6-.4,1.4,0,2.3,.5,1.2,.5,2.5,0,3.8-.2,.7-.4,1.5,0,2.3,.5,1.3,.5,2.6,0,3.9-.2,.7-.3,1.4,0,2.2,.5,1.6,.4,3.4-.3,5-.1,.3-.2,.4,0,.7,.5,.7,.4,1.5,.5,2.3,.2,1.2-.3,2.3-.5,3.4,0,.2,0,.4,.1,.6,.4,.7,.5,1.4,.3,2.1,0,.2,0,.4,0,.6,.3,.6,.2,1-.1,1.5-.2,.3,0,.8-.1,1.1-.8,1.1-1.5,2.3-2.5,3.3-.4-.8,0-1.6,0-2.3,.2-1.1-.1-2.2,0-3.3,.1-1.2,0-2.4,.3-3.6,.2-.8-.2-1.7-.2-2.6,0-1.1,0-2.3,.2-3.4,.1-.9-.2-1.8-.2-2.7,0-1.2,0-2.5,.1-3.7,0-.3,0-.6,0-.9-.2-1.8,0-3.6-.2-5.3-.1-1.5-.2-3.1-.1-4.6,0-2.2-.1-4.3,0-6.5,0-2.1,0-4.3,.2-6.4,.2-2-.4-4.1,0-6.1,.4-1.8-.1-3.5,0-5.2,.1-1.1,.3-2.2,0-3.4-.3-1.6-.2-3.2,0-4.8,0-.3,0-.6,0-.9-.2-1.6-.2-3.3,0-4.9,0-.6-.7-.4-.6-.8Z"/><path class="uuid-bfb49316-6cb5-499c-9325-5bf1a6eb2162" d="M195.4,55.7c0,0,.2,.2,.2,.2,1.1-.3,.9,.2,.5,.8,0,.1-.2,.3-.2,.4,.4,1.4-.1,2.9,.2,4.2,.1,.5,.1,1,0,1.5-.1,.3-.1,.6,0,.9,.1,.2,.3,.4,.1,.6-.6,1.2,0,2.4,0,3.6,0,.3,.1,.5,0,.7-.3,.5-.5,.9,0,1.4,0,0,0,.3,0,.4-.6,1.1,0,2.2,0,3.4,0,.2,0,.3,0,.5-.5,1.5-.5,3.2-.2,4.7,.2,1.2,0,2.3,0,3.5,0,.7,.2,1.7-.3,2.5,0,0,0,.2,0,.3,.7,1.6,0,3.3,0,4.9,0,1.2,.5,2.5,0,3.7-.2,.5,0,1.1,0,1.5,.3,1.1-.2,2.2,0,3.4,.2,.7,.3,1.7,0,2.6-.3,1,.2,2,.2,3,0,.4,0,.9,0,1.3-.2,.4-.3,.8,0,1.2,0,.1,.1,.3,0,.4-.5,1.3-.2,2.5,.1,3.8,0,0,0,0,0,0-.7,.8,0,1.8-.3,2.8-.3,.9,0,1.9,.2,2.9,0,.5,.2,.9-.1,1.3-.2,.3-.3,.6,0,.9,.2,.2,.2,.5,0,.7-.5,1-.3,2.1,0,3.1,0,.3,.1,.5,0,.7-.4,1.1-.1,2.3-.5,3.3-.3,.7-.9,1.2-1.3,1.7-.6-.2-.8-.5-.6-1.2,.2-.6,.4-1.4,0-2-.1-.2,0-.5,.1-.7,0-.1,.2-.4,.2-.4-.6-.6,0-1.2,0-1.6-.2-1.1,.6-2.2-.2-3.3-.2-.2,0-.5,.1-.7,.2-.4,.3-.8-.1-1.1-.2-.1-.3-.3,0-.5,.3-.3,.2-.7,0-1.1,0-.3,0-.5,.2-.7,.6-.4,.5-.9,.2-1.4-.3-.5-.5-1-.1-1.6,0,0,.1-.3,0-.4-.7-1.2-.3-2.3,0-3.4,0-.1,0-.3,0-.4-.7-.9-.2-1.9-.4-2.9-.1-.6,0-1.5,.1-2.3,.1-.6,.2-1.1-.1-1.7,0-.1-.2-.4-.1-.5,.3-.7,.2-1.2,0-1.9-.2-.5,0-1.5,.3-2.3,.1-.5,.1-.9-.1-1.3-.2-.3-.2-.6,0-.9,.2-.5,.4-1-.2-1.4,0,0,0-.3,0-.4,.4-1.2,.7-2.5,.2-3.8,0-.2,0-.4,0-.7,0-.2,.2-.5,.2-.6-.7-1.4,.2-2.7,.2-4,0-.3,0-.5-.1-.7-.3-.4-.2-.7,0-1.1,.1-.2,.3-.5,0-.7-.4-.4-.5-.7,0-1.1,.1,0,.2-.3,0-.4-.5-.5-.2-1.1-.1-1.6,0-.5,.2-1-.1-1.5-.2-.2,0-.5,0-.7,0-.2,.3-.5,.2-.5-.5-.6,0-1.2,0-1.6-.2-1.1,.6-2.2-.2-3.3-.1-.2,0-.4,0-.6,.2-.5,.1-.8,0-1.3-.2-.6-.2-1.6,.2-2.1,.5-.7,.3-1.2,0-1.8-.2-.3-.3-.6,0-1,.3-.4,0-.8,0-1.2,0-.7-.2-1.6,0-2.3,.5-1.4,.3-1.8-1.1-2,.9-.8,1.7-1.7,2.7-2.3Z"/><path class="uuid-09c9541f-c013-46f6-9a99-7d7819cb7753" d="M27.1,99.3c.2,.5,.7,1.1,0,1.7,0,0,0,.2,0,.2,.8,.6,.2,1.4,.3,2,.1,.7,.2,1.3-.3,1.9-.2,.2-.1,.5,0,.7,.2,.3,.2,.6,.2,.9,0,.4-.3,.7,.3,.9,0,0,.1,.1,0,.2-.6,1,.1,2.2-.5,3.2-.2,.3-.4,.7-.2,1,.3,.5,.4,.9,0,1.4,0,0,0,.2,0,.3,.4,1.5,.2,2.2,0,3.7-.1,.7-.3,1.7,.4,2.4,.1,.1,.3,.4,.2,.5-.6,1,0,2.2-.6,3.2-.2,.3,0,.5,.1,.7,.1,.3,.3,.6,0,.9-.3,.3-.2,.5,.2,.7,.3,.2,.2,.5,.2,.9-.2,1.3-.4,2.6-.3,4,0,1.5,.5,3,0,4.4-.3,.9,.2,1.8-.2,2.8-.2,.4,.4,1.1,.3,1.8-.1,1.1-.7,2.2,0,3.4,0,.2-.1,.5-.2,.7,0,.2-.2,.4,0,.5,.7,1.3,.4,2.5,0,3.8,0,.3,0,.6,.1,.8,.2,.3,.3,.7,0,1-.2,.2-.2,.5,0,.7,.6,.5,.3,.9-.3,1.2-.5-.3-.8-.7-1.2-1.2-.9-1-1.8-1.9-2.7-2.9-.4-.5-.9-1-1.3-1.5,.2-2.1,.1-4.2,.1-6.2,0-3.1,0-6.1,0-9.2,0-1.4,0-2.8,0-4.2,0-1.2,.2-2.5,0-3.7-.2-3,0-6,0-9,0-2.5-.4-5.1,0-7.7,.1-.7-.1-1.4-.1-2.1,.5-.8,1.3-1.3,1.9-1.9,.8-.7,1.6-1.4,2.4-2.1,.3-.2,.4-.6,.9-.6Z"/><path class="uuid-752a1835-2bbb-42d0-9567-b0726b54a4d9" d="M68.6,108.3c.6-.4,1.2-.8,1.7-1.2,.9-.4,1.6-1.1,2.5-1.4,.1,.2,.4,.5,.3,.6-.7,1.7,.5,3.5-.3,5.1,0,.1-.2,.3,0,.4,.8,.6,.4,1.2,.1,1.8-.2,.4,.1,.9,.1,1.4,0,.8,.4,1.7-.5,2.3-1.6-2.6-3-5.4-4.1-8.3-.1-.3-.5-.7,0-1Z"/><path class="uuid-4a3221d9-496a-41f1-971a-e08fb98919f6" d="M11.3,134.7c.5-.3,.7-.5,.3-1.1-.2-.3-.3-.7,0-1.3,.3-.5,0-1.4,0-2.1-.1-.7-.2-1.4,.1-2.1,0,0,.1-.2,0-.3-.8-1.3,.2-2.7-.3-4.1-.2-.5-.2-1.2,.2-1.8,0-.1,.1-.3,.1-.4-.7-1.1,.1-2.1,0-3.1-.1-1,.1-2,0-2.8,0-.8-.2-1.5-.2-2.3,0-.1-.2-.2-.3-.3,.3-.3,.5-.5,.8-.8,1.1-1,2.2-1.9,3.3-2.9,.7-.4,1.1-1.3,1.9-1.5,.3,0,.5,.3,.6,.6,.4,1.9,.7,3.8,.2,5.7-.2,.7-.1,1.5,0,2.2,.4,1.3,.1,2.7,0,4,0,.4-.2,.8-.1,1.2,.4,1.3,.2,2.7,.3,4,0,.7-.5,1.4-.2,2.1,.6,1.4,.1,2.9,.3,4.4,0,.7-.5,1.3-.3,2.1,.5,1.7,.4,3.5,.1,5.2,0,.6,0,1.1,0,1.7,0,.3,.3,.6-.2,.8-.9-.8-1.7-1.6-2.5-2.5-1.4-1.5-2.8-3.1-4.2-4.6Z"/><path class="uuid-41d3e95c-30d8-4482-86c8-bfdc63c790a2" d="M18.1,141.8c.3-.5-.3-.9-.2-1.4,.1-.6,0-1.3,.3-2,.2-.5-.3-1.2,0-1.9,.3-.8-.1-1.5-.2-2.3-.1-.7-.4-1.4,.3-1.9,0,0,.1-.3,0-.4-.5-.5-.3-1.2-.1-1.7,.2-.8-.2-1.5-.3-2.3,0-.6,.2-1.3,0-1.8-.2-1.1,.4-2.2,0-3.2-.4-1-.2-1.9,0-3,.1-1,.5-2.2,0-3.2-.4-.8-.3-1.7-.3-2.4,0-.6,.2-1.2,.3-1.8,.3-1.4-.3-2.7-.3-4.1,0-.2-.2-.4-.3-.6,1.4-1.5,2.9-2.9,4.6-4,.7,.5,.5,1.3,.4,1.9-.2,1.5-.2,3,0,4.5,.1,1.6-.2,3.2,0,4.8,.1,.9,0,1.8,.2,2.7,0,.4-.2,.7-.3,1-.3,1.2,0,2.4,0,3.5,0,1.7-.2,3.3,0,5,.2,2.5,0,4.9,.1,7.4,.1,1.6-.2,3.3,0,4.9,.1,1.7-.1,3.5,0,5.2,0,.4,.1,1-.4,1.3-.5-.3-.8-.7-1.2-1.2-.9-1-1.8-1.9-2.7-2.9,0,0,0-.1,0-.2Z"/><path class="uuid-0318c576-466c-403f-b064-c68f5a83f87e" d="M127,119.9c0,0,.1,.1,.2,.2-.3,.2-.6,.4-1,.6-.4,.2-.7,.2-.8-.3-.4-1.4-.8-2.8-1.2-4.1,0,0,0-.1,0-.2,0,0,0,0,0,0,.5,.1,.5,.6,.6,1,.3,.8,.5,1.7,.8,2.6,.1,.4,.3,.8,.8,.4,.2,0,.3-.2,.5,0Z"/><path class="uuid-2807c823-5cc5-4094-86ab-ab54023bb2f5" d="M133.5,122.2c0,.1-.1,.3-.3,.4-.2,0-.2-.1-.3-.3,0-.2,.1-.3,.3-.4,.2,0,.2,0,.2,.2Z"/><path class="uuid-89fd7e99-ba35-45f7-adf8-d4dca26daeb4" d="M126.6,120.1c-.6,.6-.9,.4-1.1-.4-.4-1.3-.6-2.5-1.2-3.7-.7-1.9-1.2-3.9-1.8-5.8-.1-.4,0-.8,.3-1,.5-.5,1-1.1,1.3-1.7,.7-1.3,1.8-2.4,2.4-3.7,.6-.7,.8-1.6,1.4-2.3,1.4-2.1,2.2-4.4,3.1-6.7,2-5.6,3.2-11.3,4.2-17.1,.6-3.3,1.2-6.7,1.8-10,0-.1,0-.2,.2-.3,.3,.3,.2,.7,.3,1.1,0,.2,0,.3,0,.5-.2,.6,0,1.2,0,1.7-.2,2.4-.3,4.8-.5,7.2-.1,1.5-.2,3-.3,4.5-.3,5.8-.7,11.6-1.8,17.3-1.3,6.7-3.7,13.1-7.3,18.9-.3,.5-.7,1-.8,1.6Z"/><path class="uuid-2807c823-5cc5-4094-86ab-ab54023bb2f5" d="M122.8,109.1c-.2,.4-.2,.8,0,1.3,.5,1.9,1.2,3.7,1.6,5.6,0,0,0,.2,0,.2-.8-2-1.3-4.1-1.9-6.1-.1-.4-.1-.9,.4-1Z"/><path class="uuid-2807c823-5cc5-4094-86ab-ab54023bb2f5" d="M126.6,103.7c-.7,1.3-1.5,2.5-2.5,3.7,.2-.8,.7-1.3,1.2-1.9,.5-.6,.9-1.3,1.3-2,0,0,0,.2,0,.2Z"/><path class="uuid-0318c576-466c-403f-b064-c68f5a83f87e" d="M126.6,103.7c0,0,0-.2,0-.2,.4-.8,.8-1.6,1.3-2.3,0,0,0,.2,0,.3-.3,.8-.8,1.6-1.4,2.3Z"/><path class="uuid-2afb541a-451e-424e-ae0d-eb449a2da1c5" d="M156.5,23.2c0,0,0,.1,0,.2-1.9,2.5-2.1,5.4-1.9,8.4,.5,5.8,.7,11.6,1,17.4,0,.7-.2,1.1-.7,1.6-4.5,3.8-9.8,5.7-15.7,5.4-.9,0-1.4-.5-1.8-1.3-1.5-2.7-2.8-5.5-3.6-8.6-.2-.7-.4-.9-1.1-.7-1.6,.3-2.8-.4-3.7-2-1-2.1-1.3-4.2-.6-6.4,.7-2.1,2.4-2.7,4.3-1.6,.2,.1,.4,.3,.6,.4,.3,.2,.5,.2,.7-.2,2.4-6,7.4-8.9,13.1-11,2.6-1,5.2-1.5,7.9-2.1,.4,0,.8,0,1.2,0,.3,0,.4,.2,.2,.5Z"/><path class="uuid-89fd7e99-ba35-45f7-adf8-d4dca26daeb4" d="M156.5,23.2c0-.4-.3-.4-.6-.3-5,.9-9.9,2.2-14.4,4.9-3.3,2-5.9,4.6-7.3,8.3-.2,.6-.4,.6-.9,.3-.4-.3-.8-.6-1.2-.8-1.4-.7-2.8-.3-3.3,1.2-1.1,2.7-.8,5.3,1,7.7,.7,1,1.8,1.3,3,.9,.7-.3,.9,0,1.1,.6,.7,3.2,2.1,6.1,3.7,8.9,.4,.7,.8,1.2,1.6,1.4-1.3,0-2.6-.4-3.8-.7-.3,0-.7-.2-1-.3-1.1-.6-2.2-1.2-3.3-1.8-1.8-1.1-3.2-2.7-4.4-4.4-1-1.6-2.1-3.1-2.9-4.8-2.6-5.4-2.8-10.6,.4-15.8,.6-1.2,1.7-2,2.6-2.8,.4-.3,.8-.6,1.2-.8,.5-.3,1.1-.5,1.6-.8,.8-.2,1.6-.8,2.5-.8,4.2-1.1,8.5-1.6,12.9-1.5,3.7,0,7.4,.4,11.1,1,.7,.1,.7,.1,.5,.7Z"/><path class="uuid-2807c823-5cc5-4094-86ab-ab54023bb2f5" d="M130.2,8.1c1.1,0,2.2,0,3.3,0,.8,.9,.2,1.9,.3,2.9,.1,1.4,.2,2.8,.1,4.2,0,2,0,4,0,6,0,.3-.1,.6-.2,.9-.6,.2-1.3,.4-1.9,.6-.8,.5-1.6,.8-2.5,1.1-.1,0-.2,0-.3,0-.4-.4-.5-1-.3-1.4,.5-1.8,0-3.6,0-5.3,0,0,0-.2,0-.3,.5-2.8-.3-5.6,0-8.4,0,0,0-.2,.1-.3,.4,0,.9,0,1.3,0Z"/><path class="uuid-e3dd0c13-1509-4e1b-9d61-507de5a560c0" d="M129.5,23.7c.8-.3,1.7-.6,2.5-1,0,0,0,.1,0,.2-.8,.4-1.6,.8-2.5,1,0,0,0,0,0-.2,0,0,0,0,0,0Z"/><path class="uuid-5f6daa1e-1ff6-498e-bdc5-61a6c09213ac" d="M128.9,8.1c.5,1.1,0,2.2,.1,3.3,0,.7,0,1.4,.2,2.1,.1,.6,.1,1.2,0,1.8-.3,1.1,0,2.1,0,3.2,0,1.3,.4,2.5,0,3.8-.2,.5-.1,1.1,.2,1.5-.2,.6-.9,.6-1.3,.9-1.5,.9-2.6,2.2-3.9,3.4-.1,.1-.3,.3-.4,.4,.4-1.2-.4-2.6,.3-3.8,0,0,0-.2,0-.3-.8-.6-.4-1.4-.3-2.1,0-1.2-.4-2.5,.2-3.7-.8-1.5,.6-3.1-.3-4.6,0,0,0-.2,0-.3,.8-1.2-.1-2.6,.3-3.8,.2-.5,0-1.1-.2-1.6,1.7,0,3.5,0,5.2,0Z"/><path class="uuid-0318c576-466c-403f-b064-c68f5a83f87e" d="M126.6,48.9c1.3,1.6,2.8,3.1,4.4,4.4,0,0,0,.2,0,.2-1.7-1.1-3-2.5-4.2-4.2-.1-.2-.2-.3-.2-.5Z"/><path class="uuid-2807c823-5cc5-4094-86ab-ab54023bb2f5" d="M124.1,28c1.1-1.4,2.4-2.5,3.9-3.5,.1,0,.1,.2,0,.2-1.4,1-2.7,2.2-3.9,3.5,0,0,0-.2,0-.2Z"/><path class="uuid-2afb541a-451e-424e-ae0d-eb449a2da1c5" d="M126.6,120.1c-.6-.1-.2-.4,0-.7,1.2-2,2.3-4,3.3-6.1,2.5-5.3,4.2-10.8,5-16.6,.6-4,1-8,1.2-12,.2-3.2,.4-6.3,.6-9.5,.1-1.6,.2-3.2,.4-4.8,.3-.6,0-1.2,.2-1.7,0-.1,0-.2,0-.4,.3-.3-.3-.9,.4-1,0,.1,0,.2,0,.3,.1,2.2,.3,4.3,.5,6.5,.2,1.7,.3,3.4,.5,5.1,.3,2.9,.3,5.7,.5,8.6,0,1.6,0,3.1,0,4.7-.1,2.2-.2,4.3-.5,6.5-.3,2.5-.6,4.9-1,7.4-.4,2.4-.9,4.9-1.5,7.3,0,.4-.1,.8-.5,1.1-2.9,1.7-5.8,3.4-8.7,5-.1,0-.2,.1-.4,.2Z"/><path class="uuid-3f150e14-44c2-4f04-9065-ff6e0d6ae3d7" d="M135.6,114.9c.8-2.5,1.2-5.1,1.7-7.7,.6-3,1-6.1,1.3-9.2,0-.7,0-1.4,.1-2.1,0-2.7,.5-5.4,.2-8,0-.4,0-.8,0-1.2,0-3.6-.4-7.1-.7-10.7-.3-2.9-.6-5.7-.6-8.6,0,0,.1,0,.2,0,.4,6.3,1.2,12.6,1.5,18.9,.2,5.2,0,10.4-.7,15.5-.5,4-1.3,8-2.2,12,0,.4,0,.9-.6,1Z"/><path class="uuid-d430b3f1-77a2-4a97-a74b-56c6bdabbf4a" d="M137.7,67.5c0,0-.1,0-.2,0,0,0,0,0,0,0-.2-.1-.2-.4-.4-.6,0-.3,0-.6,0-1,0-.1,.2-.3,.3-.5,.3,.7,.3,1.4,.2,2Z"/><path class="uuid-3f150e14-44c2-4f04-9065-ff6e0d6ae3d7" d="M137.2,66.9c.8-.2,.3,.4,.4,.6-.4,.2,0,.7-.4,1,0-.4,0-.8,0-1.2,0-.1,0-.2,0-.4Z"/><path class="uuid-3f150e14-44c2-4f04-9065-ff6e0d6ae3d7" d="M137.2,68.8c0,.6,.2,1.2-.2,1.7,0-.6-.2-1.2,.2-1.7Z"/><path class="uuid-ac045771-a68b-48a7-b6b1-6803508b3fc3" d="M148.3,48.8c-2.3,0-3.8-.8-5-2.1-.4-.5-.6-.8,.3-.9,2.9-.5,5.8-1,8.7-1.5,.4,0,.6,0,.5,.5-.5,2.2-2.7,4.1-4.5,4.1Z"/><path class="uuid-0318c576-466c-403f-b064-c68f5a83f87e" d="M127.9,24.7v-.2c.4-.3,1-.4,1.3-.8,0,0,.1,0,.2,0,0,0,0,.2,0,.2-.5,.3-1,.6-1.5,.8Z"/></g><g><path d="M261,81.6c-5.3-4.9-7.9-12-7.9-21.4s2.6-16.5,7.9-21.4c5.3-4.9,12.5-7.3,21.9-7.3s15.9,2.4,20,7.2c4.1,4.8,6.2,10.8,6.2,18v7.1h-31.9v.6c0,2.4,.7,4.2,2.2,5.4,1.4,1.1,3.8,1.7,7.2,1.7s7.8-.3,11.4-.9c3.6-.6,6.8-1.3,9.5-2.3v15.8c-2.3,1.2-5.7,2.4-10.1,3.4-4.4,1-9.2,1.5-14.4,1.5-9.3,0-16.6-2.4-21.9-7.3Zm27.6-28.7v-1.2c0-2.2-.5-3.8-1.4-4.8s-2.4-1.5-4.3-1.5-3.3,.5-4.3,1.5c-1,1-1.4,2.6-1.4,4.8v1.2h11.4Z"/><path d="M325.3,81.6c-5.3-4.9-7.9-12-7.9-21.4s2.6-16.5,7.9-21.4c5.3-4.9,12.5-7.3,21.9-7.3s15.9,2.4,20,7.2c4.1,4.8,6.2,10.8,6.2,18v7.1h-31.9v.6c0,2.4,.7,4.2,2.2,5.4,1.4,1.1,3.8,1.7,7.2,1.7s7.8-.3,11.4-.9c3.6-.6,6.8-1.3,9.5-2.3v15.8c-2.3,1.2-5.7,2.4-10.1,3.4-4.4,1-9.2,1.5-14.4,1.5-9.3,0-16.6-2.4-21.9-7.3Zm27.6-28.7v-1.2c0-2.2-.5-3.8-1.4-4.8s-2.4-1.5-4.3-1.5-3.3,.5-4.3,1.5c-1,1-1.4,2.6-1.4,4.8v1.2h11.4Z"/><path d="M382,87.6v-14.7l24-23.9h-8.8v3.5h-14.7v-19.7h51.7v14.1l-23.4,24.5h9.5v-5.5h14.9v21.7h-53.2Z"/><path d="M502.5,32.8v16.2h-3.7l-12.9,34.2c-3.2,8.6-6.9,15.1-11,19.4-4.1,4.3-9.6,6.5-16.4,6.5s-5.6-.3-8.4-.8c-2.8-.6-5.4-1.3-7.7-2.3v-17.8h13.6v1c0,1.6,.9,2.5,2.6,2.5s2.7-.7,3.4-2.2l-15.6-40.3h-3.7v-16.2h29.3v16.2h-3.3l5.1,15.4,4.7-15.4h-3.3v-16.2h27.4Z"/><path d="M507.3,110.1c-2.9-.5-5.3-1-7.2-1.5v-16.1c3.1,.5,5.8,.7,8.3,.7,5.1,0,7.6-2.4,7.6-7.1V49h-6.6v-16.2h29.3v51.4c0,9-1.9,15.7-5.7,20-3.8,4.4-9.6,6.6-17.2,6.6s-5.5-.2-8.3-.7Zm9-82.8V10.9h20.1V27.4h-20.1Z"/><path d="M556.3,81.6c-5.3-4.9-7.9-12-7.9-21.4s2.6-16.5,7.9-21.4c5.3-4.9,12.5-7.3,21.9-7.3s16.8,2.5,22,7.4c5.2,5,7.8,12.1,7.8,21.3s-2.6,16.5-7.9,21.4c-5.3,4.9-12.5,7.3-21.9,7.3s-16.6-2.4-21.9-7.3Zm26.2-11.7c1-1,1.4-2.6,1.4-4.8v-9.9c0-2.2-.5-3.8-1.4-4.8-1-1-2.4-1.5-4.3-1.5s-3.3,.5-4.3,1.5c-1,1-1.4,2.6-1.4,4.8v9.9c0,2.2,.5,3.8,1.4,4.8,1,1,2.4,1.5,4.3,1.5s3.3-.5,4.3-1.5Z"/><path d="M648.8,86.5c-2.6-1.6-4.7-3.5-6.4-5.6v6.7h-27v-16.2h4.3V27.1h-4.3V10.9h27v28.6c1.6-2.1,3.8-4,6.4-5.6,2.6-1.6,5.6-2.5,8.9-2.5,6.7,0,11.7,2.5,15.1,7.5,3.4,5,5.1,12.1,5.1,21.3s-1.7,16.3-5.1,21.3c-3.4,5-8.4,7.5-15.1,7.5s-6.3-.8-8.9-2.5Zm3.6-16.6c1-1,1.4-2.6,1.4-4.8v-9.9c0-2.2-.5-3.8-1.4-4.8-1-1-2.4-1.5-4.3-1.5s-3.3,.5-4.3,1.5c-1,1-1.4,2.6-1.4,4.8v9.9c0,2.2,.5,3.8,1.4,4.8,1,1,2.4,1.5,4.3,1.5s3.3-.5,4.3-1.5Z"/><path d="M687.6,87.6v-16.2h15.4v16.2h-15.4Z"/><path d="M715.4,85v-14.6h16v1c0,3.2,2,4.7,6,4.7s5.3-1.2,5.3-3.6-.5-2.3-1.5-3c-1-.7-2.8-1.2-5.4-1.7l-4.9-.9c-10.3-1.8-15.5-7.7-15.5-17.5s2.2-10.1,6.5-13.3,10.2-4.7,17.5-4.7,15.1,1.4,20.8,4.1v13.7h-15v-1c0-1.3-.4-2.3-1.3-3s-2.2-1-3.9-1c-3.3,0-4.9,1.1-4.9,3.2s.5,2,1.4,2.6c.9,.6,2.6,1.1,5,1.7l5.6,1.1c5.8,1.1,10,3.2,12.5,6.2,2.5,3,3.7,6.9,3.7,11.6s-2.1,10.5-6.3,13.7c-4.2,3.2-10.1,4.7-17.8,4.7s-16.3-1.3-23.9-3.9Z"/><path d="M831.1,71.4h4.2v16.2h-24.1l-10.1-18.9h-2.4v18.9h-27v-16.2h4.3V27.1h-4.3V10.9h27V50.9h2.4l12.2-18.1h20.8v16.2h-4l-8.4,9.4,9.5,13.1Z"/><path d="M253,141.6h3c0,2,.6,3.6,1.7,4.7,1.1,1.2,2.5,1.8,4.2,1.8s3.3-.6,4.4-1.7c1.1-1.2,1.6-2.7,1.6-4.7,0-2.9-2.2-5.1-6.7-6.6-.4-.1-.6-.2-.8-.3-2.3-.8-4-1.8-5.1-3.1-1-1.2-1.5-2.9-1.5-4.8s.8-4.6,2.4-6.3c1.6-1.6,3.6-2.4,6.2-2.4s4.3,.7,5.7,2.2,2.2,3.6,2.4,6.2h-3c-.2-1.7-.7-3.1-1.6-4-.9-.9-2.1-1.4-3.5-1.4s-2.9,.5-3.9,1.5c-1,1-1.5,2.3-1.5,3.9s.1,1.6,.5,2.2c.3,.6,.8,1.2,1.4,1.7,.7,.5,2,1.1,3.9,1.7,1.1,.4,1.9,.6,2.5,.9,2.1,.8,3.6,1.8,4.5,3.1,.9,1.3,1.4,2.9,1.4,4.9,0,3.1-.8,5.6-2.5,7.5-1.7,1.9-3.9,2.8-6.7,2.8s-4.7-.9-6.3-2.7c-1.6-1.8-2.5-4.2-2.5-7.1Z"/><path d="M280,150.7v-21h-4.6v-3.1h4.6v-7.8h3.1v7.8h4.6v3.1h-4.6v21h-3.1Z"/><path d="M312.3,146.9c-1,1.4-2.3,2.5-3.9,3.3-1.6,.8-3.4,1.2-5.3,1.2-3.5,0-6.5-1.2-8.9-3.6-2.4-2.4-3.5-5.4-3.5-9s1.2-6.6,3.6-9.1c2.4-2.4,5.4-3.6,9-3.6s3.6,.4,5.1,1.1c1.6,.8,2.8,1.8,3.9,3.3v-3.9h3v24.2h-3v-3.8Zm0-8.4c0-2.6-.9-4.8-2.7-6.7-1.8-1.9-3.9-2.9-6.3-2.9s-4.8,1-6.6,2.9c-1.8,1.9-2.7,4.3-2.7,7.1s.9,5,2.7,6.8c1.8,1.9,4,2.8,6.5,2.8s4.6-1,6.4-2.9c1.8-2,2.7-4.3,2.7-7.1Z"/><path d="M326,118.8v11.9c1.3-1.6,2.7-2.7,4.3-3.5,1.6-.7,3.3-1.1,5.2-1.1,3.4,0,6.3,1.2,8.6,3.7,2.4,2.4,3.5,5.4,3.5,8.9s-1.2,6.6-3.6,9.1c-2.4,2.4-5.4,3.7-9.1,3.7s-3.4-.4-4.9-1.1c-1.5-.7-2.8-1.8-4.1-3.2v3.6h-3.1v-32h3.1Zm0,20.1c0,2.6,.9,4.8,2.7,6.7,1.8,1.9,3.9,2.9,6.3,2.9s4.8-1,6.6-2.9c1.8-1.9,2.7-4.3,2.7-7.1s-.9-4.9-2.7-6.8c-1.8-1.9-4-2.8-6.5-2.8s-4.7,1-6.5,2.9c-1.8,1.9-2.7,4.3-2.7,7.1Z"/><path d="M357.2,123.7h-3.1v-5h3.1v5Zm-3.1,27v-24.2h3.1v24.2h-3.1Z"/><path d="M364.9,150.7v-32h3.1v32h-3.1Z"/><path d="M375.7,126.6h3v2.7c1-1.1,2.1-1.9,3.3-2.4,1.3-.5,2.7-.8,4.3-.8s3.4,.3,4.7,1c1.4,.7,2.5,1.6,3.3,2.8,.6,.9,1,1.9,1.2,3,.2,1.2,.4,2.9,.4,5.2v12.6h-3.1v-13.5c0-2.9-.5-4.9-1.6-6.2-1.1-1.3-2.8-1.9-5.2-1.9s-2.6,.3-3.7,.8c-1.1,.6-1.9,1.4-2.5,2.4-.4,.7-.6,1.4-.8,2.3-.2,.8-.2,2.3-.2,4.4v11.8h-3v-24.2Z"/><path d="M423.8,146.9c-1,1.4-2.3,2.5-3.9,3.3-1.6,.8-3.4,1.2-5.3,1.2-3.5,0-6.5-1.2-8.9-3.6-2.4-2.4-3.5-5.4-3.5-9s1.2-6.6,3.6-9.1c2.4-2.4,5.4-3.6,9-3.6s3.6,.4,5.1,1.1c1.6,.8,2.8,1.8,3.9,3.3v-3.9h3v24.2h-3v-3.8Zm0-8.4c0-2.6-.9-4.8-2.7-6.7-1.8-1.9-3.9-2.9-6.3-2.9s-4.8,1-6.6,2.9c-1.8,1.9-2.7,4.3-2.7,7.1s.9,5,2.7,6.8c1.8,1.9,4,2.8,6.5,2.8s4.6-1,6.4-2.9c1.8-2,2.7-4.3,2.7-7.1Zm-9.7-15.2h-2l4.6-7.7h3.3l-5.9,7.7Z"/><path d="M450.2,126.6h3.1v4c.9-1.4,2.1-2.5,3.8-3.3,1.6-.8,3.4-1.2,5.2-1.2,3.6,0,6.7,1.2,9.1,3.6,2.4,2.4,3.6,5.5,3.6,9.1s-1.2,6.5-3.5,9c-2.4,2.4-5.3,3.6-8.9,3.6s-3.7-.4-5.3-1.1c-1.6-.8-2.9-1.9-3.9-3.3v11.6h-3.1v-32Zm3.1,11.9c0,2.8,.9,5.1,2.7,7.1,1.8,2,4,2.9,6.4,2.9s4.7-.9,6.5-2.8c1.8-1.9,2.7-4.1,2.7-6.8s-.9-5.2-2.7-7.1c-1.8-1.9-4-2.9-6.6-2.9s-4.5,1-6.3,2.9-2.7,4.2-2.7,6.7Z"/><path d="M484.3,150.7h-3.1v-24.2h2.9v2.8c.8-1.1,1.6-1.9,2.5-2.4,.9-.5,2-.8,3.2-.8v3.4c-1.9,.2-3.3,.8-4.2,1.7-.8,1-1.3,2.6-1.3,4.8v14.6Z"/><path d="M514.3,146.9c-1,1.4-2.3,2.5-3.9,3.3-1.6,.8-3.4,1.2-5.3,1.2-3.5,0-6.5-1.2-8.9-3.6-2.4-2.4-3.5-5.4-3.5-9s1.2-6.6,3.6-9.1c2.4-2.4,5.4-3.6,9-3.6s3.6,.4,5.1,1.1c1.6,.8,2.8,1.8,3.9,3.3v-3.9h3v24.2h-3v-3.8Zm0-8.4c0-2.6-.9-4.8-2.7-6.7-1.8-1.9-3.9-2.9-6.3-2.9s-4.8,1-6.6,2.9c-1.8,1.9-2.7,4.3-2.7,7.1s.9,5,2.7,6.8c1.8,1.9,4,2.8,6.5,2.8s4.6-1,6.4-2.9c1.8-2,2.7-4.3,2.7-7.1Zm-9.7-15.2h-2l4.6-7.7h3.3l-5.9,7.7Z"/><path d="M544.2,134c-1-1.8-2.1-3.1-3.5-3.9-1.4-.8-3-1.3-4.9-1.3s-4.6,.9-6.3,2.8c-1.7,1.9-2.6,4.2-2.6,7s.9,5.1,2.6,7c1.7,1.9,3.9,2.8,6.5,2.8s3.5-.5,5-1.4c1.4-.9,2.5-2.2,3.3-3.9h3.4c-.9,2.6-2.4,4.7-4.4,6.1-2,1.4-4.4,2.2-7.1,2.2s-6.5-1.2-8.9-3.7c-2.4-2.5-3.6-5.5-3.6-9s1.2-6.6,3.7-9.1c2.4-2.5,5.4-3.7,8.9-3.7s4.9,.7,6.9,2.1c2,1.4,3.5,3.4,4.5,6h-3.4Z"/><path d="M574.4,146.9c-1,1.4-2.3,2.5-3.9,3.3-1.6,.8-3.4,1.2-5.3,1.2-3.5,0-6.5-1.2-8.9-3.6-2.4-2.4-3.5-5.4-3.5-9s1.2-6.6,3.6-9.1c2.4-2.4,5.4-3.6,9-3.6s3.6,.4,5.1,1.1c1.6,.8,2.8,1.8,3.9,3.3v-3.9h3v24.2h-3v-3.8Zm0-8.4c0-2.6-.9-4.8-2.7-6.7-1.8-1.9-3.9-2.9-6.3-2.9s-4.8,1-6.6,2.9c-1.8,1.9-2.7,4.3-2.7,7.1s.9,5,2.7,6.8c1.8,1.9,4,2.8,6.5,2.8s4.6-1,6.4-2.9c1.8-2,2.7-4.3,2.7-7.1Z"/><path d="M610.3,150.7h-2.8l-9.4-24.2h3.3l7.7,19.5,7.8-19.5h3.4l-9.9,24.2Z"/><path d="M655.5,150.7h-16.7v-2.9l12.6-18.3h-11.2v-2.9h14.6v3.3l-12.3,17.7h13v3.1Z"/><path d="M680.4,146.9c-1,1.4-2.3,2.5-3.9,3.3-1.6,.8-3.4,1.2-5.3,1.2-3.5,0-6.5-1.2-8.9-3.6-2.4-2.4-3.5-5.4-3.5-9s1.2-6.6,3.6-9.1c2.4-2.4,5.4-3.6,9-3.6s3.6,.4,5.1,1.1c1.6,.8,2.8,1.8,3.9,3.3v-3.9h3v24.2h-3v-3.8Zm0-8.4c0-2.6-.9-4.8-2.7-6.7-1.8-1.9-3.9-2.9-6.3-2.9s-4.8,1-6.6,2.9c-1.8,1.9-2.7,4.3-2.7,7.1s.9,5,2.7,6.8c1.8,1.9,4,2.8,6.5,2.8s4.6-1,6.4-2.9c1.8-2,2.7-4.3,2.7-7.1Z"/><path d="M691.1,118.8h3.1v10.7c.9-1.1,2-1.9,3.2-2.5,1.3-.6,2.7-.8,4.2-.8,3.4,0,5.9,1,7.4,2.9,1.6,1.9,2.3,5.1,2.3,9.5v12.3h-3.1v-12.3c0-3.5-.5-5.9-1.6-7.3-1.1-1.4-2.8-2.1-5.3-2.1s-2.6,.3-3.7,.8c-1.1,.6-1.9,1.4-2.5,2.4-.4,.7-.6,1.4-.8,2.3-.2,.8-.2,2.3-.2,4.4v11.8h-3.1v-32Z"/><path d="M722,150.7h-3.1v-24.2h2.9v2.8c.8-1.1,1.6-1.9,2.5-2.4,.9-.5,2-.8,3.2-.8v3.4c-1.9,.2-3.3,.8-4.2,1.7-.8,1-1.3,2.6-1.3,4.8v14.6Z"/><path d="M752,146.9c-1,1.4-2.3,2.5-3.9,3.3-1.6,.8-3.4,1.2-5.3,1.2-3.5,0-6.5-1.2-8.9-3.6-2.4-2.4-3.5-5.4-3.5-9s1.2-6.6,3.6-9.1c2.4-2.4,5.4-3.6,9-3.6s3.6,.4,5.1,1.1c1.6,.8,2.8,1.8,3.9,3.3v-3.9h3v24.2h-3v-3.8Zm0-8.4c0-2.6-.9-4.8-2.7-6.7-1.8-1.9-3.9-2.9-6.3-2.9s-4.8,1-6.6,2.9c-1.8,1.9-2.7,4.3-2.7,7.1s.9,5,2.7,6.8c1.8,1.9,4,2.8,6.5,2.8s4.6-1,6.4-2.9c1.8-2,2.7-4.3,2.7-7.1Z"/><path d="M762.7,126.6h3v2.7c1-1.1,2.1-1.9,3.3-2.4,1.3-.5,2.7-.8,4.3-.8s3.4,.3,4.7,1c1.4,.7,2.5,1.6,3.3,2.8,.6,.9,1,1.9,1.2,3,.2,1.2,.4,2.9,.4,5.2v12.6h-3.1v-13.5c0-2.9-.5-4.9-1.6-6.2-1.1-1.3-2.8-1.9-5.2-1.9s-2.6,.3-3.7,.8c-1.1,.6-1.9,1.4-2.5,2.4-.4,.7-.6,1.4-.8,2.3-.2,.8-.2,2.3-.2,4.4v11.8h-3v-24.2Z"/><path d="M793.6,123.7h-3.1v-5h3.1v5Zm-3.1,27v-24.2h3.1v24.2h-3.1Z"/><path d="M820.7,134c-1-1.8-2.1-3.1-3.5-3.9-1.4-.8-3-1.3-4.9-1.3s-4.6,.9-6.3,2.8c-1.7,1.9-2.6,4.2-2.6,7s.9,5.1,2.6,7c1.7,1.9,3.9,2.8,6.5,2.8s3.5-.5,5-1.4c1.4-.9,2.5-2.2,3.3-3.9h3.4c-.9,2.6-2.4,4.7-4.4,6.1-2,1.4-4.4,2.2-7.1,2.2s-6.5-1.2-8.9-3.7c-2.4-2.5-3.6-5.5-3.6-9s1.2-6.6,3.7-9.1c2.4-2.5,5.4-3.7,8.9-3.7s4.9,.7,6.9,2.1c2,1.4,3.5,3.4,4.5,6h-3.4Zm-14.2-18.3h2l4,5.8,4-5.8h2l-4.4,7.6h-3.3l-4.4-7.6Z"/><path d="M831.5,123.3h-2l4.6-7.7h3.3l-5.9,7.7Zm-.8,27.4v-24.2h3.1v24.2h-3.1Z"/></g></svg>